Interstate-Compressed_Extra_Light.ufo
<glyph name="exclam" format="1">
  <advance width="159"/>
  <unicode hex="0021"/>
  <outline>
    <contour>
      <point x="61" y="142" type="line"/>
      <point x="61" y="700" type="line"/>
      <point x="98" y="700" type="line"/>
      <point x="98" y="142" type="line"/>
    </contour>
    <contour>
      <point x="79" y="61" type="curve" smooth="yes"/>
      <point x="97" y="61"/>
      <point x="113" y="45"/>
      <point x="113" y="27" type="curve" smooth="yes"/>
      <point x="113" y="9"/>
      <point x="97" y="-6"/>
      <point x="79" y="-6" type="curve" smooth="yes"/>
      <point x="61" y="-6"/>
      <point x="45" y="9"/>
      <point x="45" y="27" type="curve" smooth="yes"/>
      <point x="45" y="45"/>
      <point x="61" y="61"/>
    </contour>
  </outline>
</glyph>
<glyph name="quotedbl" format="1">
  <advance width="269"/>
  <unicode hex="0022"/>
  <outline>
    <contour>
      <point x="176" y="428" type="line"/>
      <point x="176" y="700" type="line"/>
      <point x="213" y="700" type="line"/>
      <point x="213" y="428" type="line"/>
    </contour>
    <contour>
      <point x="56" y="428" type="line"/>
      <point x="56" y="700" type="line"/>
      <point x="93" y="700" type="line"/>
      <point x="93" y="428" type="line"/>
    </contour>
  </outline>
</glyph>
<glyph name="numbersign" format="1">
  <advance width="383"/>
  <unicode hex="0023"/>
  <outline>
    <contour>
      <point x="359" y="188" type="line"/>
      <point x="294" y="188" type="line"/>
      <point x="294" y="0" type="line"/>
      <point x="257" y="0" type="line"/>
      <point x="257" y="188" type="line"/>
      <point x="126" y="188" type="line"/>
      <point x="126" y="0" type="line"/>
      <point x="89" y="0" type="line"/>
      <point x="89" y="188" type="line"/>
      <point x="24" y="188" type="line"/>
      <point x="24" y="222" type="line"/>
      <point x="89" y="222" type="line"/>
      <point x="89" y="478" type="line"/>
      <point x="24" y="478" type="line"/>
      <point x="24" y="513" type="line"/>
      <point x="89" y="513" type="line"/>
      <point x="89" y="700" type="line"/>
      <point x="126" y="700" type="line"/>
      <point x="126" y="513" type="line"/>
      <point x="257" y="513" type="line"/>
      <point x="257" y="700" type="line"/>
      <point x="294" y="700" type="line"/>
      <point x="294" y="513" type="line"/>
      <point x="359" y="513" type="line"/>
      <point x="359" y="478" type="line"/>
      <point x="294" y="478" type="line"/>
      <point x="294" y="222" type="line"/>
      <point x="359" y="222" type="line"/>
    </contour>
    <contour>
      <point x="257" y="222" type="line"/>
      <point x="257" y="478" type="line"/>
      <point x="126" y="478" type="line"/>
      <point x="126" y="222" type="line"/>
    </contour>
  </outline>
</glyph>
<glyph name="dollar" format="1">
  <advance width="298"/>
  <unicode hex="0024"/>
  <outline>
    <contour>
      <point x="263" y="144" type="curve" smooth="yes"/>
      <point x="263" y="58"/>
      <point x="227" y="3"/>
      <point x="165" y="-6" type="curve"/>
      <point x="165" y="-66" type="line"/>
      <point x="125" y="-66" type="line"/>
      <point x="125" y="-5" type="line"/>
      <point x="69" y="4"/>
      <point x="38" y="55"/>
      <point x="28" y="150" type="curve"/>
      <point x="66" y="159" type="line"/>
      <point x="78" y="62"/>
      <point x="105" y="29"/>
      <point x="147" y="29" type="curve" smooth="yes"/>
      <point x="197" y="29"/>
      <point x="225" y="71"/>
      <point x="225" y="139" type="curve" smooth="yes"/>
      <point x="225" y="210"/>
      <point x="206" y="273"/>
      <point x="131" y="357" type="curve" smooth="yes"/>
      <point x="56" y="443"/>
      <point x="34" y="496"/>
      <point x="34" y="569" type="curve" smooth="yes"/>
      <point x="34" y="644"/>
      <point x="68" y="697"/>
      <point x="124" y="705" type="curve"/>
      <point x="124" y="766" type="line"/>
      <point x="163" y="766" type="line"/>
      <point x="163" y="705" type="line"/>
      <point x="216" y="698"/>
      <point x="244" y="656"/>
      <point x="261" y="573" type="curve"/>
      <point x="223" y="563" type="line"/>
      <point x="205" y="645"/>
      <point x="182" y="671"/>
      <point x="142" y="671" type="curve" smooth="yes"/>
      <point x="98" y="671"/>
      <point x="73" y="630"/>
      <point x="73" y="573" type="curve" smooth="yes"/>
      <point x="73" y="515"/>
      <point x="86" y="470"/>
      <point x="156" y="390" type="curve" smooth="yes"/>
      <point x="236" y="300"/>
      <point x="263" y="231"/>
    </contour>
  </outline>
</glyph>
<glyph name="ampersand" format="1">
  <advance width="329"/>
  <unicode hex="0026"/>
  <outline>
    <contour>
      <point x="127" y="-9" type="curve" smooth="yes"/>
      <point x="68" y="-9"/>
      <point x="32" y="52"/>
      <point x="32" y="154" type="curve" smooth="yes"/>
      <point x="32" y="242"/>
      <point x="64" y="322"/>
      <point x="114" y="391" type="curve"/>
      <point x="94" y="447" type="line" smooth="yes"/>
      <point x="70" y="513"/>
      <point x="61" y="554"/>
      <point x="61" y="593" type="curve" smooth="yes"/>
      <point x="61" y="660"/>
      <point x="98" y="709"/>
      <point x="157" y="709" type="curve" smooth="yes"/>
      <point x="217" y="709"/>
      <point x="246" y="658"/>
      <point x="262" y="583" type="curve"/>
      <point x="225" y="568" type="line"/>
      <point x="211" y="636"/>
      <point x="193" y="672"/>
      <point x="156" y="672" type="curve" smooth="yes"/>
      <point x="120" y="672"/>
      <point x="100" y="640"/>
      <point x="100" y="597" type="curve" smooth="yes"/>
      <point x="100" y="557"/>
      <point x="107" y="519"/>
      <point x="128" y="463" type="curve" smooth="yes"/>
      <point x="228" y="193" type="line"/>
      <point x="240" y="240"/>
      <point x="253" y="303"/>
      <point x="265" y="380" type="curve"/>
      <point x="298" y="371" type="line"/>
      <point x="281" y="272"/>
      <point x="263" y="200"/>
      <point x="246" y="144" type="curve"/>
      <point x="299" y="0" type="line"/>
      <point x="261" y="0" type="line"/>
      <point x="227" y="91" type="line"/>
      <point x="200" y="16"/>
      <point x="169" y="-9"/>
    </contour>
    <contour>
      <point x="132" y="28" type="curve" smooth="yes"/>
      <point x="163" y="28"/>
      <point x="189" y="55"/>
      <point x="211" y="134" type="curve"/>
      <point x="130" y="352" type="line"/>
      <point x="94" y="296"/>
      <point x="71" y="230"/>
      <point x="71" y="159" type="curve" smooth="yes"/>
      <point x="71" y="76"/>
      <point x="95" y="28"/>
    </contour>
  </outline>
</glyph>
<glyph name="quotesingle" format="1">
  <advance width="149"/>
  <unicode hex="0027"/>
  <outline>
    <contour>
      <point x="56" y="428" type="line"/>
      <point x="56" y="700" type="line"/>
      <point x="93" y="700" type="line"/>
      <point x="93" y="428" type="line"/>
    </contour>
  </outline>
</glyph>
<glyph name="parenleft" format="1">
  <advance width="200"/>
  <unicode hex="0028"/>
  <outline>
    <contour>
      <point x="171" y="-94" type="curve"/>
      <point x="146" y="-110" type="line"/>
      <point x="72" y="11"/>
      <point x="38" y="144"/>
      <point x="38" y="302" type="curve" smooth="yes"/>
      <point x="38" y="462"/>
      <point x="72" y="593"/>
      <point x="146" y="714" type="curve"/>
      <point x="171" y="698" type="line"/>
      <point x="109" y="588"/>
      <point x="77" y="454"/>
      <point x="77" y="304" type="curve" smooth="yes"/>
      <point x="77" y="151"/>
      <point x="109" y="16"/>
    </contour>
  </outline>
</glyph>
<glyph name="parenright" format="1">
  <advance width="200"/>
  <unicode hex="0029"/>
  <outline>
    <contour>
      <point x="162" y="303" type="curve" smooth="yes"/>
      <point x="162" y="143"/>
      <point x="128" y="11"/>
      <point x="54" y="-110" type="curve"/>
      <point x="29" y="-94" type="line"/>
      <point x="91" y="16"/>
      <point x="123" y="151"/>
      <point x="123" y="301" type="curve" smooth="yes"/>
      <point x="123" y="454"/>
      <point x="91" y="588"/>
      <point x="29" y="698" type="curve"/>
      <point x="54" y="714" type="line"/>
      <point x="128" y="593"/>
      <point x="162" y="461"/>
    </contour>
  </outline>
</glyph>
<glyph name="asterisk" format="1">
  <advance width="295"/>
  <unicode hex="002A"/>
  <outline>
    <contour>
      <point x="267" y="522" type="line"/>
      <point x="250" y="494" type="line"/>
      <point x="156" y="557" type="line"/>
      <point x="164" y="444" type="line"/>
      <point x="131" y="444" type="line"/>
      <point x="139" y="557" type="line"/>
      <point x="45" y="494" type="line"/>
      <point x="28" y="522" type="line"/>
      <point x="129" y="571" type="line"/>
      <point x="28" y="622" type="line"/>
      <point x="45" y="650" type="line"/>
      <point x="139" y="585" type="line"/>
      <point x="131" y="699" type="line"/>
      <point x="164" y="699" type="line"/>
      <point x="156" y="585" type="line"/>
      <point x="250" y="650" type="line"/>
      <point x="267" y="622" type="line"/>
      <point x="166" y="572" type="line"/>
    </contour>
  </outline>
</glyph>
<glyph name="plus" format="1">
  <advance width="293"/>
  <unicode hex="002B"/>
  <outline>
    <contour>
      <point x="271" y="326" type="line"/>
      <point x="165" y="326" type="line"/>
      <point x="165" y="201" type="line"/>
      <point x="129" y="201" type="line"/>
      <point x="129" y="326" type="line"/>
      <point x="22" y="326" type="line"/>
      <point x="22" y="362" type="line"/>
      <point x="129" y="362" type="line"/>
      <point x="129" y="487" type="line"/>
      <point x="165" y="487" type="line"/>
      <point x="165" y="362" type="line"/>
      <point x="271" y="362" type="line"/>
    </contour>
  </outline>
</glyph>
<glyph name="comma" format="1">
  <advance width="111"/>
  <unicode hex="002C"/>
  <outline>
    <contour>
      <point x="82" y="67" type="line"/>
      <point x="49" y="-83" type="line"/>
      <point x="26" y="-83" type="line"/>
      <point x="40" y="67" type="line"/>
    </contour>
  </outline>
</glyph>
<glyph name="hyphen" format="1">
  <advance width="215"/>
  <unicode hex="002D"/>
  <unicode hex="2010"/>
  <unicode hex="2011"/>
  <outline>
    <contour>
      <point x="187" y="346" type="line"/>
      <point x="29" y="346" type="line"/>
      <point x="29" y="384" type="line"/>
      <point x="187" y="384" type="line"/>
    </contour>
  </outline>
</glyph>
<glyph name="period" format="1">
  <advance width="111"/>
  <unicode hex="002E"/>
  <outline>
    <contour>
      <point x="56" y="61" type="curve" smooth="yes"/>
      <point x="74" y="61"/>
      <point x="90" y="45"/>
      <point x="90" y="27" type="curve" smooth="yes"/>
      <point x="90" y="9"/>
      <point x="74" y="-6"/>
      <point x="56" y="-6" type="curve" smooth="yes"/>
      <point x="38" y="-6"/>
      <point x="22" y="9"/>
      <point x="22" y="27" type="curve" smooth="yes"/>
      <point x="22" y="45"/>
      <point x="38" y="61"/>
    </contour>
  </outline>
</glyph>
<glyph name="slash" format="1">
  <advance width="201"/>
  <unicode hex="002F"/>
  <outline>
    <contour>
      <point x="205" y="790" type="line"/>
      <point x="31" y="-90" type="line"/>
      <point x="-5" y="-90" type="line"/>
      <point x="170" y="790" type="line"/>
    </contour>
  </outline>
</glyph>
<glyph name="zero" format="1">
  <advance width="338"/>
  <unicode hex="0030"/>
  <outline>
    <contour>
      <point x="296" y="350" type="curve" smooth="yes"/>
      <point x="296" y="98"/>
      <point x="256" y="-9"/>
      <point x="169" y="-9" type="curve" smooth="yes"/>
      <point x="82" y="-9"/>
      <point x="41" y="98"/>
      <point x="41" y="350" type="curve" smooth="yes"/>
      <point x="41" y="602"/>
      <point x="82" y="709"/>
      <point x="169" y="709" type="curve" smooth="yes"/>
      <point x="256" y="709"/>
      <point x="296" y="602"/>
    </contour>
    <contour>
      <point x="258" y="350" type="curve" smooth="yes"/>
      <point x="258" y="584"/>
      <point x="224" y="672"/>
      <point x="168" y="672" type="curve" smooth="yes"/>
      <point x="112" y="672"/>
      <point x="80" y="584"/>
      <point x="80" y="350" type="curve" smooth="yes"/>
      <point x="80" y="116"/>
      <point x="114" y="28"/>
      <point x="169" y="28" type="curve" smooth="yes"/>
      <point x="225" y="28"/>
      <point x="258" y="116"/>
    </contour>
  </outline>
</glyph>
<glyph name="one" format="1">
  <advance width="199"/>
  <unicode hex="0031"/>
  <outline>
    <contour>
      <point x="123" y="0" type="line"/>
      <point x="85" y="0" type="line"/>
      <point x="85" y="633" type="line"/>
      <point x="67" y="619"/>
      <point x="34" y="609"/>
      <point x="8" y="607" type="curve"/>
      <point x="8" y="636" type="line"/>
      <point x="55" y="641"/>
      <point x="79" y="659"/>
      <point x="92" y="701" type="curve"/>
      <point x="123" y="701" type="line"/>
    </contour>
  </outline>
</glyph>
<glyph name="two" format="1">
  <advance width="298"/>
  <unicode hex="0032"/>
  <outline>
    <contour>
      <point x="262" y="0" type="line"/>
      <point x="28" y="0" type="line"/>
      <point x="28" y="160"/>
      <point x="63" y="244"/>
      <point x="149" y="356" type="curve" smooth="yes"/>
      <point x="199" y="420"/>
      <point x="222" y="475"/>
      <point x="222" y="545" type="curve" smooth="yes"/>
      <point x="222" y="623"/>
      <point x="200" y="672"/>
      <point x="150" y="672" type="curve" smooth="yes"/>
      <point x="106" y="672"/>
      <point x="86" y="631"/>
      <point x="70" y="541" type="curve"/>
      <point x="33" y="551" type="line"/>
      <point x="49" y="648"/>
      <point x="79" y="709"/>
      <point x="154" y="709" type="curve" smooth="yes"/>
      <point x="227" y="709"/>
      <point x="261" y="640"/>
      <point x="261" y="547" type="curve" smooth="yes"/>
      <point x="261" y="466"/>
      <point x="230" y="403"/>
      <point x="173" y="327" type="curve" smooth="yes"/>
      <point x="94" y="224"/>
      <point x="68" y="148"/>
      <point x="68" y="36" type="curve"/>
      <point x="262" y="36" type="line"/>
    </contour>
  </outline>
</glyph>
<glyph name="three" format="1">
  <advance width="297"/>
  <unicode hex="0033"/>
  <outline>
    <contour>
      <point x="259" y="193" type="curve" smooth="yes"/>
      <point x="259" y="67"/>
      <point x="213" y="-9"/>
      <point x="139" y="-9" type="curve" smooth="yes"/>
      <point x="73" y="-9"/>
      <point x="40" y="38"/>
      <point x="21" y="143" type="curve"/>
      <point x="59" y="153" type="line"/>
      <point x="74" y="64"/>
      <point x="99" y="28"/>
      <point x="142" y="28" type="curve" smooth="yes"/>
      <point x="194" y="28"/>
      <point x="220" y="96"/>
      <point x="220" y="192" type="curve" smooth="yes"/>
      <point x="220" y="307"/>
      <point x="187" y="359"/>
      <point x="121" y="359" type="curve" smooth="yes"/>
      <point x="106" y="359" type="line"/>
      <point x="106" y="396" type="line"/>
      <point x="123" y="396" type="line" smooth="yes"/>
      <point x="189" y="396"/>
      <point x="215" y="451"/>
      <point x="215" y="545" type="curve" smooth="yes"/>
      <point x="215" y="625"/>
      <point x="185" y="672"/>
      <point x="144" y="672" type="curve" smooth="yes"/>
      <point x="100" y="672"/>
      <point x="79" y="631"/>
      <point x="61" y="552" type="curve"/>
      <point x="24" y="563" type="line"/>
      <point x="44" y="649"/>
      <point x="73" y="709"/>
      <point x="146" y="709" type="curve" smooth="yes"/>
      <point x="214" y="709"/>
      <point x="254" y="644"/>
      <point x="254" y="546" type="curve" smooth="yes"/>
      <point x="254" y="454"/>
      <point x="227" y="398"/>
      <point x="173" y="380" type="curve"/>
      <point x="224" y="365"/>
      <point x="259" y="318"/>
    </contour>
  </outline>
</glyph>
<glyph name="four" format="1">
  <advance width="306"/>
  <unicode hex="0034"/>
  <outline>
    <contour>
      <point x="287" y="201" type="line"/>
      <point x="239" y="201" type="line"/>
      <point x="239" y="0" type="line"/>
      <point x="204" y="0" type="line"/>
      <point x="204" y="201" type="line"/>
      <point x="12" y="201" type="line"/>
      <point x="12" y="227" type="line"/>
      <point x="209" y="701" type="line"/>
      <point x="239" y="701" type="line"/>
      <point x="239" y="234" type="line"/>
      <point x="287" y="234" type="line"/>
    </contour>
    <contour>
      <point x="204" y="234" type="line"/>
      <point x="204" y="611" type="line"/>
      <point x="52" y="234" type="line"/>
    </contour>
  </outline>
</glyph>
<glyph name="five" format="1">
  <advance width="298"/>
  <unicode hex="0035"/>
  <outline>
    <contour>
      <point x="267" y="226" type="curve" smooth="yes"/>
      <point x="267" y="82"/>
      <point x="229" y="-9"/>
      <point x="146" y="-9" type="curve" smooth="yes"/>
      <point x="74" y="-9"/>
      <point x="43" y="59"/>
      <point x="32" y="146" type="curve"/>
      <point x="69" y="155" type="line"/>
      <point x="79" y="82"/>
      <point x="101" y="28"/>
      <point x="147" y="28" type="curve" smooth="yes"/>
      <point x="200" y="28"/>
      <point x="228" y="102"/>
      <point x="228" y="225" type="curve" smooth="yes"/>
      <point x="228" y="339"/>
      <point x="198" y="403"/>
      <point x="149" y="403" type="curve" smooth="yes"/>
      <point x="112" y="403"/>
      <point x="91" y="374"/>
      <point x="72" y="331" type="curve"/>
      <point x="40" y="336" type="line"/>
      <point x="55" y="700" type="line"/>
      <point x="255" y="700" type="line"/>
      <point x="255" y="662" type="line"/>
      <point x="90" y="662" type="line"/>
      <point x="77" y="389" type="line"/>
      <point x="91" y="414"/>
      <point x="116" y="440"/>
      <point x="155" y="440" type="curve" smooth="yes"/>
      <point x="225" y="440"/>
      <point x="267" y="369"/>
    </contour>
  </outline>
</glyph>
<glyph name="six" format="1">
  <advance width="311"/>
  <unicode hex="0036"/>
  <outline>
    <contour>
      <point x="283" y="208" type="curve" smooth="yes"/>
      <point x="283" y="86"/>
      <point x="239" y="-9"/>
      <point x="160" y="-9" type="curve" smooth="yes"/>
      <point x="80" y="-9"/>
      <point x="36" y="78"/>
      <point x="36" y="230" type="curve" smooth="yes"/>
      <point x="36" y="497"/>
      <point x="106" y="619"/>
      <point x="207" y="708" type="curve"/>
      <point x="228" y="677" type="line"/>
      <point x="147" y="608"/>
      <point x="92" y="499"/>
      <point x="77" y="344" type="curve"/>
      <point x="92" y="393"/>
      <point x="128" y="423"/>
      <point x="167" y="423" type="curve" smooth="yes"/>
      <point x="245" y="423"/>
      <point x="283" y="336"/>
    </contour>
    <contour>
      <point x="244" y="206" type="curve" smooth="yes"/>
      <point x="244" y="316"/>
      <point x="217" y="386"/>
      <point x="161" y="386" type="curve" smooth="yes"/>
      <point x="107" y="386"/>
      <point x="75" y="314"/>
      <point x="75" y="216" type="curve" smooth="yes"/>
      <point x="75" y="99"/>
      <point x="108" y="28"/>
      <point x="161" y="28" type="curve" smooth="yes"/>
      <point x="212" y="28"/>
      <point x="244" y="102"/>
    </contour>
  </outline>
</glyph>
<glyph name="seven" format="1">
  <advance width="282"/>
  <unicode hex="0037"/>
  <outline>
    <contour>
      <point x="255" y="666" type="line"/>
      <point x="146" y="485"/>
      <point x="131" y="300"/>
      <point x="131" y="0" type="curve"/>
      <point x="92" y="0" type="line"/>
      <point x="92" y="288"/>
      <point x="114" y="495"/>
      <point x="213" y="664" type="curve"/>
      <point x="15" y="664" type="line"/>
      <point x="15" y="700" type="line"/>
      <point x="255" y="700" type="line"/>
    </contour>
  </outline>
</glyph>
<glyph name="eight" format="1">
  <advance width="310"/>
  <unicode hex="0038"/>
  <outline>
    <contour>
      <point x="273" y="201" type="curve" smooth="yes"/>
      <point x="273" y="66"/>
      <point x="222" y="-9"/>
      <point x="154" y="-9" type="curve" smooth="yes"/>
      <point x="87" y="-9"/>
      <point x="37" y="68"/>
      <point x="37" y="200" type="curve" smooth="yes"/>
      <point x="37" y="301"/>
      <point x="68" y="361"/>
      <point x="112" y="384" type="curve"/>
      <point x="72" y="403"/>
      <point x="43" y="461"/>
      <point x="43" y="537" type="curve" smooth="yes"/>
      <point x="43" y="633"/>
      <point x="88" y="709"/>
      <point x="155" y="709" type="curve" smooth="yes"/>
      <point x="225" y="709"/>
      <point x="267" y="631"/>
      <point x="267" y="538" type="curve" smooth="yes"/>
      <point x="267" y="461"/>
      <point x="238" y="405"/>
      <point x="197" y="385" type="curve"/>
      <point x="242" y="363"/>
      <point x="273" y="301"/>
    </contour>
    <contour>
      <point x="229" y="536" type="curve" smooth="yes"/>
      <point x="229" y="613"/>
      <point x="200" y="672"/>
      <point x="155" y="672" type="curve" smooth="yes"/>
      <point x="110" y="672"/>
      <point x="81" y="614"/>
      <point x="81" y="538" type="curve" smooth="yes"/>
      <point x="81" y="463"/>
      <point x="111" y="403"/>
      <point x="155" y="403" type="curve" smooth="yes"/>
      <point x="200" y="403"/>
      <point x="229" y="463"/>
    </contour>
    <contour>
      <point x="234" y="200" type="curve" smooth="yes"/>
      <point x="234" y="297"/>
      <point x="203" y="367"/>
      <point x="154" y="367" type="curve" smooth="yes"/>
      <point x="106" y="367"/>
      <point x="75" y="297"/>
      <point x="75" y="201" type="curve" smooth="yes"/>
      <point x="75" y="98"/>
      <point x="107" y="28"/>
      <point x="155" y="28" type="curve" smooth="yes"/>
      <point x="203" y="28"/>
      <point x="234" y="97"/>
    </contour>
  </outline>
</glyph>
<glyph name="nine" format="1">
  <advance width="311"/>
  <unicode hex="0039"/>
  <outline>
    <contour>
      <point x="275" y="470" type="curve" smooth="yes"/>
      <point x="275" y="203"/>
      <point x="205" y="81"/>
      <point x="104" y="-8" type="curve"/>
      <point x="83" y="23" type="line"/>
      <point x="164" y="92"/>
      <point x="219" y="201"/>
      <point x="234" y="356" type="curve"/>
      <point x="219" y="307"/>
      <point x="183" y="277"/>
      <point x="144" y="277" type="curve" smooth="yes"/>
      <point x="66" y="277"/>
      <point x="28" y="364"/>
      <point x="28" y="492" type="curve" smooth="yes"/>
      <point x="28" y="614"/>
      <point x="72" y="709"/>
      <point x="151" y="709" type="curve" smooth="yes"/>
      <point x="231" y="709"/>
      <point x="275" y="622"/>
    </contour>
    <contour>
      <point x="236" y="484" type="curve" smooth="yes"/>
      <point x="236" y="601"/>
      <point x="203" y="672"/>
      <point x="150" y="672" type="curve" smooth="yes"/>
      <point x="99" y="672"/>
      <point x="67" y="598"/>
      <point x="67" y="494" type="curve" smooth="yes"/>
      <point x="67" y="384"/>
      <point x="94" y="314"/>
      <point x="150" y="314" type="curve" smooth="yes"/>
      <point x="204" y="314"/>
      <point x="236" y="386"/>
    </contour>
  </outline>
</glyph>
<glyph name="colon" format="1">
  <advance width="111"/>
  <unicode hex="003A"/>
  <outline>
    <contour>
      <point x="56" y="525" type="curve" smooth="yes"/>
      <point x="74" y="525"/>
      <point x="90" y="509"/>
      <point x="90" y="491" type="curve" smooth="yes"/>
      <point x="90" y="473"/>
      <point x="74" y="458"/>
      <point x="56" y="458" type="curve" smooth="yes"/>
      <point x="38" y="458"/>
      <point x="22" y="473"/>
      <point x="22" y="491" type="curve" smooth="yes"/>
      <point x="22" y="509"/>
      <point x="38" y="525"/>
    </contour>
    <contour>
      <point x="56" y="61" type="curve" smooth="yes"/>
      <point x="74" y="61"/>
      <point x="90" y="45"/>
      <point x="90" y="27" type="curve" smooth="yes"/>
      <point x="90" y="9"/>
      <point x="74" y="-6"/>
      <point x="56" y="-6" type="curve" smooth="yes"/>
      <point x="38" y="-6"/>
      <point x="22" y="9"/>
      <point x="22" y="27" type="curve" smooth="yes"/>
      <point x="22" y="45"/>
      <point x="38" y="61"/>
    </contour>
  </outline>
</glyph>
<glyph name="semicolon" format="1">
  <advance width="111"/>
  <unicode hex="003B"/>
  <outline>
    <contour>
      <point x="56" y="525" type="curve" smooth="yes"/>
      <point x="74" y="525"/>
      <point x="90" y="509"/>
      <point x="90" y="491" type="curve" smooth="yes"/>
      <point x="90" y="473"/>
      <point x="74" y="458"/>
      <point x="56" y="458" type="curve" smooth="yes"/>
      <point x="38" y="458"/>
      <point x="22" y="473"/>
      <point x="22" y="491" type="curve" smooth="yes"/>
      <point x="22" y="509"/>
      <point x="38" y="525"/>
    </contour>
    <contour>
      <point x="75" y="67" type="line"/>
      <point x="43" y="-83" type="line"/>
      <point x="20" y="-83" type="line"/>
      <point x="33" y="67" type="line"/>
    </contour>
  </outline>
</glyph>
<glyph name="less" format="1">
  <advance width="231"/>
  <unicode hex="003C"/>
  <outline>
    <contour>
      <point x="197" y="152" type="line"/>
      <point x="22" y="331" type="line"/>
      <point x="22" y="357" type="line"/>
      <point x="197" y="536" type="line"/>
      <point x="197" y="486" type="line"/>
      <point x="57" y="345" type="line"/>
      <point x="197" y="202" type="line"/>
    </contour>
  </outline>
</glyph>
<glyph name="equal" format="1">
  <advance width="337"/>
  <unicode hex="003D"/>
  <outline>
    <contour>
      <point x="297" y="403" type="line"/>
      <point x="41" y="403" type="line"/>
      <point x="41" y="440" type="line"/>
      <point x="297" y="440" type="line"/>
    </contour>
    <contour>
      <point x="297" y="248" type="line"/>
      <point x="41" y="248" type="line"/>
      <point x="41" y="285" type="line"/>
      <point x="297" y="285" type="line"/>
    </contour>
  </outline>
</glyph>
<glyph name="greater" format="1">
  <advance width="231"/>
  <unicode hex="003E"/>
  <outline>
    <contour>
      <point x="209" y="331" type="line"/>
      <point x="35" y="152" type="line"/>
      <point x="35" y="202" type="line"/>
      <point x="175" y="343" type="line"/>
      <point x="35" y="486" type="line"/>
      <point x="35" y="536" type="line"/>
      <point x="209" y="357" type="line"/>
    </contour>
  </outline>
</glyph>
<glyph name="question" format="1">
  <advance width="277"/>
  <unicode hex="003F"/>
  <outline>
    <contour>
      <point x="246" y="559" type="curve" smooth="yes"/>
      <point x="246" y="493"/>
      <point x="222" y="437"/>
      <point x="191" y="379" type="curve" smooth="yes"/>
      <point x="160" y="321"/>
      <point x="142" y="277"/>
      <point x="142" y="151" type="curve"/>
      <point x="106" y="151" type="line"/>
      <point x="106" y="276"/>
      <point x="122" y="329"/>
      <point x="159" y="397" type="curve" smooth="yes"/>
      <point x="187" y="448"/>
      <point x="207" y="502"/>
      <point x="207" y="557" type="curve" smooth="yes"/>
      <point x="207" y="626"/>
      <point x="185" y="672"/>
      <point x="141" y="672" type="curve" smooth="yes"/>
      <point x="100" y="672"/>
      <point x="75" y="635"/>
      <point x="60" y="540" type="curve"/>
      <point x="24" y="550" type="line"/>
      <point x="39" y="653"/>
      <point x="74" y="709"/>
      <point x="144" y="709" type="curve" smooth="yes"/>
      <point x="210" y="709"/>
      <point x="246" y="647"/>
    </contour>
    <contour>
      <point x="124" y="61" type="curve" smooth="yes"/>
      <point x="142" y="61"/>
      <point x="158" y="45"/>
      <point x="158" y="27" type="curve" smooth="yes"/>
      <point x="158" y="9"/>
      <point x="142" y="-6"/>
      <point x="124" y="-6" type="curve" smooth="yes"/>
      <point x="106" y="-6"/>
      <point x="90" y="9"/>
      <point x="90" y="27" type="curve" smooth="yes"/>
      <point x="90" y="45"/>
      <point x="106" y="61"/>
    </contour>
  </outline>
</glyph>
<glyph name="at" format="1">
  <advance width="468"/>
  <unicode hex="0040"/>
  <outline>
    <contour>
      <point x="430" y="360" type="curve" smooth="yes"/>
      <point x="430" y="200"/>
      <point x="396" y="160"/>
      <point x="349" y="160" type="curve" smooth="yes"/>
      <point x="322" y="160"/>
      <point x="300" y="172"/>
      <point x="291" y="193" type="curve"/>
      <point x="272" y="172"/>
      <point x="251" y="159"/>
      <point x="223" y="159" type="curve" smooth="yes"/>
      <point x="176" y="159"/>
      <point x="150" y="197"/>
      <point x="150" y="283" type="curve" smooth="yes"/>
      <point x="150" y="371"/>
      <point x="181" y="407"/>
      <point x="229" y="407" type="curve" smooth="yes"/>
      <point x="250" y="407"/>
      <point x="264" y="400"/>
      <point x="279" y="388" type="curve"/>
      <point x="279" y="468" type="line" smooth="yes"/>
      <point x="279" y="509"/>
      <point x="269" y="527"/>
      <point x="236" y="527" type="curve" smooth="yes"/>
      <point x="216" y="527"/>
      <point x="198" y="516"/>
      <point x="177" y="496" type="curve"/>
      <point x="162" y="515" type="line"/>
      <point x="184" y="539"/>
      <point x="210" y="555"/>
      <point x="239" y="555" type="curve" smooth="yes"/>
      <point x="285" y="555"/>
      <point x="307" y="533"/>
      <point x="307" y="469" type="curve" smooth="yes"/>
      <point x="307" y="254" type="line" smooth="yes"/>
      <point x="307" y="210"/>
      <point x="321" y="187"/>
      <point x="349" y="187" type="curve" smooth="yes"/>
      <point x="381" y="187"/>
      <point x="402" y="224"/>
      <point x="402" y="361" type="curve" smooth="yes"/>
      <point x="402" y="561"/>
      <point x="345" y="683"/>
      <point x="235" y="683" type="curve" smooth="yes"/>
      <point x="120" y="683"/>
      <point x="67" y="559"/>
      <point x="67" y="351" type="curve" smooth="yes"/>
      <point x="67" y="142"/>
      <point x="119" y="17"/>
      <point x="236" y="17" type="curve" smooth="yes"/>
      <point x="268" y="17"/>
      <point x="298" y="30"/>
      <point x="322" y="49" type="curve"/>
      <point x="335" y="28" type="line"/>
      <point x="307" y="5"/>
      <point x="272" y="-10"/>
      <point x="235" y="-10" type="curve" smooth="yes"/>
      <point x="103" y="-10"/>
      <point x="39" y="117"/>
      <point x="39" y="350" type="curve" smooth="yes"/>
      <point x="39" y="584"/>
      <point x="107" y="709"/>
      <point x="235" y="709" type="curve" smooth="yes"/>
      <point x="363" y="709"/>
      <point x="430" y="579"/>
    </contour>
    <contour>
      <point x="282" y="216" type="curve"/>
      <point x="280" y="222"/>
      <point x="279" y="242"/>
      <point x="279" y="248" type="curve" smooth="yes"/>
      <point x="279" y="361" type="line"/>
      <point x="263" y="374"/>
      <point x="251" y="380"/>
      <point x="229" y="380" type="curve" smooth="yes"/>
      <point x="195" y="380"/>
      <point x="178" y="349"/>
      <point x="178" y="283" type="curve" smooth="yes"/>
      <point x="178" y="217"/>
      <point x="196" y="185"/>
      <point x="228" y="185" type="curve" smooth="yes"/>
      <point x="246" y="185"/>
      <point x="265" y="196"/>
    </contour>
  </outline>
</glyph>
<glyph name="A" format="1">
  <advance width="346"/>
  <unicode hex="0041"/>
  <outline>
    <contour>
      <point x="313" y="0" type="line"/>
      <point x="272" y="0" type="line"/>
      <point x="240" y="198" type="line"/>
      <point x="105" y="198" type="line"/>
      <point x="73" y="0" type="line"/>
      <point x="33" y="0" type="line"/>
      <point x="152" y="701" type="line"/>
      <point x="194" y="701" type="line"/>
    </contour>
    <contour>
      <point x="235" y="233" type="line"/>
      <point x="192" y="493" type="line" smooth="yes"/>
      <point x="185" y="537"/>
      <point x="176" y="599"/>
      <point x="173" y="638" type="curve"/>
      <point x="169" y="599"/>
      <point x="160" y="536"/>
      <point x="153" y="492" type="curve" smooth="yes"/>
      <point x="111" y="233" type="line"/>
    </contour>
  </outline>
</glyph>
<glyph name="B" format="1">
  <advance width="328"/>
  <unicode hex="0042"/>
  <outline>
    <contour>
      <point x="292" y="195" type="curve" smooth="yes"/>
      <point x="292" y="57"/>
      <point x="227" y="0"/>
      <point x="138" y="0" type="curve" smooth="yes"/>
      <point x="55" y="0" type="line"/>
      <point x="55" y="700" type="line"/>
      <point x="135" y="700" type="line" smooth="yes"/>
      <point x="231" y="700"/>
      <point x="278" y="638"/>
      <point x="278" y="531" type="curve" smooth="yes"/>
      <point x="278" y="440"/>
      <point x="242" y="391"/>
      <point x="188" y="372" type="curve"/>
      <point x="250" y="353"/>
      <point x="292" y="304"/>
    </contour>
    <contour>
      <point x="240" y="530" type="curve" smooth="yes"/>
      <point x="240" y="621"/>
      <point x="202" y="663"/>
      <point x="133" y="663" type="curve" smooth="yes"/>
      <point x="93" y="663" type="line"/>
      <point x="93" y="390" type="line"/>
      <point x="131" y="390" type="line" smooth="yes"/>
      <point x="204" y="390"/>
      <point x="240" y="445"/>
    </contour>
    <contour>
      <point x="253" y="194" type="curve" smooth="yes"/>
      <point x="253" y="301"/>
      <point x="207" y="353"/>
      <point x="131" y="353" type="curve" smooth="yes"/>
      <point x="93" y="353" type="line"/>
      <point x="93" y="37" type="line"/>
      <point x="140" y="37" type="line" smooth="yes"/>
      <point x="212" y="37"/>
      <point x="253" y="85"/>
    </contour>
  </outline>
</glyph>
<glyph name="C" format="1">
  <advance width="320"/>
  <unicode hex="0043"/>
  <outline>
    <contour>
      <point x="287" y="159" type="line"/>
      <point x="269" y="46"/>
      <point x="236" y="-9"/>
      <point x="168" y="-9" type="curve" smooth="yes"/>
      <point x="82" y="-9"/>
      <point x="42" y="98"/>
      <point x="42" y="350" type="curve" smooth="yes"/>
      <point x="42" y="600"/>
      <point x="84" y="709"/>
      <point x="169" y="709" type="curve" smooth="yes"/>
      <point x="234" y="709"/>
      <point x="267" y="655"/>
      <point x="286" y="538" type="curve"/>
      <point x="249" y="528" type="line"/>
      <point x="229" y="640"/>
      <point x="206" y="672"/>
      <point x="169" y="672" type="curve" smooth="yes"/>
      <point x="114" y="672"/>
      <point x="82" y="582"/>
      <point x="82" y="350" type="curve" smooth="yes"/>
      <point x="82" y="114"/>
      <point x="114" y="28"/>
      <point x="171" y="28" type="curve" smooth="yes"/>
      <point x="211" y="28"/>
      <point x="233" y="65"/>
      <point x="251" y="169" type="curve"/>
    </contour>
  </outline>
</glyph>
<glyph name="D" format="1">
  <advance width="341"/>
  <unicode hex="0044"/>
  <outline>
    <contour>
      <point x="301" y="353" type="curve" smooth="yes"/>
      <point x="301" y="82"/>
      <point x="251" y="0"/>
      <point x="136" y="0" type="curve" smooth="yes"/>
      <point x="55" y="0" type="line"/>
      <point x="55" y="700" type="line"/>
      <point x="141" y="700" type="line" smooth="yes"/>
      <point x="261" y="700"/>
      <point x="301" y="591"/>
    </contour>
    <contour>
      <point x="262" y="351" type="curve" smooth="yes"/>
      <point x="262" y="577"/>
      <point x="225" y="664"/>
      <point x="140" y="664" type="curve" smooth="yes"/>
      <point x="93" y="664" type="line"/>
      <point x="93" y="36" type="line"/>
      <point x="139" y="36" type="line" smooth="yes"/>
      <point x="221" y="36"/>
      <point x="262" y="113"/>
    </contour>
  </outline>
</glyph>
<glyph name="E" format="1">
  <advance width="272"/>
  <unicode hex="0045"/>
  <outline>
    <contour>
      <point x="262" y="0" type="line"/>
      <point x="55" y="0" type="line"/>
      <point x="55" y="700" type="line"/>
      <point x="252" y="700" type="line"/>
      <point x="252" y="663" type="line"/>
      <point x="93" y="663" type="line"/>
      <point x="93" y="392" type="line"/>
      <point x="204" y="392" type="line"/>
      <point x="204" y="356" type="line"/>
      <point x="93" y="356" type="line"/>
      <point x="93" y="37" type="line"/>
      <point x="262" y="37" type="line"/>
    </contour>
  </outline>
</glyph>
<glyph name="F" format="1">
  <advance width="281"/>
  <unicode hex="0046"/>
  <outline>
    <contour>
      <point x="258" y="663" type="line"/>
      <point x="93" y="663" type="line"/>
      <point x="93" y="387" type="line"/>
      <point x="211" y="387" type="line"/>
      <point x="211" y="350" type="line"/>
      <point x="93" y="350" type="line"/>
      <point x="93" y="0" type="line"/>
      <point x="55" y="0" type="line"/>
      <point x="55" y="700" type="line"/>
      <point x="258" y="700" type="line"/>
    </contour>
  </outline>
</glyph>
<glyph name="G" format="1">
  <advance width="335"/>
  <unicode hex="0047"/>
  <outline>
    <contour>
      <point x="294" y="234" type="line" smooth="yes"/>
      <point x="294" y="85"/>
      <point x="266" y="-9"/>
      <point x="173" y="-9" type="curve" smooth="yes"/>
      <point x="81" y="-9"/>
      <point x="42" y="98"/>
      <point x="42" y="350" type="curve" smooth="yes"/>
      <point x="42" y="599"/>
      <point x="82" y="709"/>
      <point x="171" y="709" type="curve" smooth="yes"/>
      <point x="234" y="709"/>
      <point x="267" y="655"/>
      <point x="286" y="538" type="curve"/>
      <point x="249" y="528" type="line"/>
      <point x="230" y="640"/>
      <point x="206" y="672"/>
      <point x="169" y="672" type="curve" smooth="yes"/>
      <point x="114" y="672"/>
      <point x="82" y="583"/>
      <point x="82" y="350" type="curve" smooth="yes"/>
      <point x="82" y="114"/>
      <point x="115" y="28"/>
      <point x="175" y="28" type="curve" smooth="yes"/>
      <point x="229" y="28"/>
      <point x="256" y="89"/>
      <point x="256" y="234" type="curve" smooth="yes"/>
      <point x="256" y="313" type="line"/>
      <point x="175" y="313" type="line"/>
      <point x="175" y="350" type="line"/>
      <point x="294" y="350" type="line"/>
    </contour>
  </outline>
</glyph>
<glyph name="H" format="1">
  <advance width="363"/>
  <unicode hex="0048"/>
  <outline>
    <contour>
      <point x="307" y="0" type="line"/>
      <point x="269" y="0" type="line"/>
      <point x="269" y="356" type="line"/>
      <point x="93" y="356" type="line"/>
      <point x="93" y="0" type="line"/>
      <point x="55" y="0" type="line"/>
      <point x="55" y="700" type="line"/>
      <point x="93" y="700" type="line"/>
      <point x="93" y="392" type="line"/>
      <point x="269" y="392" type="line"/>
      <point x="269" y="700" type="line"/>
      <point x="307" y="700" type="line"/>
    </contour>
  </outline>
</glyph>
<glyph name="I" format="1">
  <advance width="159"/>
  <unicode hex="0049"/>
  <outline>
    <contour>
      <point x="98" y="0" type="line"/>
      <point x="60" y="0" type="line"/>
      <point x="60" y="700" type="line"/>
      <point x="98" y="700" type="line"/>
    </contour>
  </outline>
</glyph>
<glyph name="J" format="1">
  <advance width="305"/>
  <unicode hex="004A"/>
  <outline>
    <contour>
      <point x="251" y="183" type="line" smooth="yes"/>
      <point x="251" y="131"/>
      <point x="247" y="91"/>
      <point x="236" y="61" type="curve" smooth="yes"/>
      <point x="218" y="12"/>
      <point x="183" y="-9"/>
      <point x="139" y="-9" type="curve" smooth="yes"/>
      <point x="68" y="-9"/>
      <point x="29" y="43"/>
      <point x="22" y="166" type="curve"/>
      <point x="58" y="173" type="line"/>
      <point x="67" y="65"/>
      <point x="95" y="28"/>
      <point x="140" y="28" type="curve" smooth="yes"/>
      <point x="168" y="28"/>
      <point x="190" y="43"/>
      <point x="202" y="79" type="curve" smooth="yes"/>
      <point x="210" y="104"/>
      <point x="213" y="138"/>
      <point x="213" y="184" type="curve" smooth="yes"/>
      <point x="213" y="700" type="line"/>
      <point x="251" y="700" type="line"/>
    </contour>
  </outline>
</glyph>
<glyph name="K" format="1">
  <advance width="315"/>
  <unicode hex="004B"/>
  <outline>
    <contour>
      <point x="294" y="0" type="line"/>
      <point x="254" y="0" type="line"/>
      <point x="133" y="387" type="line"/>
      <point x="93" y="304" type="line"/>
      <point x="93" y="0" type="line"/>
      <point x="55" y="0" type="line"/>
      <point x="55" y="700" type="line"/>
      <point x="93" y="700" type="line"/>
      <point x="93" y="700"/>
      <point x="93" y="390"/>
      <point x="93" y="368" type="curve"/>
      <point x="101" y="390"/>
      <point x="247" y="700"/>
      <point x="247" y="700" type="curve"/>
      <point x="288" y="700" type="line"/>
      <point x="158" y="432" type="line"/>
    </contour>
  </outline>
</glyph>
<glyph name="L" format="1">
  <advance width="258"/>
  <unicode hex="004C"/>
  <outline>
    <contour>
      <point x="241" y="0" type="line"/>
      <point x="55" y="0" type="line"/>
      <point x="55" y="700" type="line"/>
      <point x="93" y="700" type="line"/>
      <point x="93" y="37" type="line"/>
      <point x="241" y="37" type="line"/>
    </contour>
  </outline>
</glyph>
<glyph name="M" format="1">
  <advance width="427"/>
  <unicode hex="004D"/>
  <outline>
    <contour>
      <point x="55" y="0" type="line"/>
      <point x="55" y="700" type="line"/>
      <point x="98" y="700" type="line"/>
      <point x="199" y="216" type="line" smooth="yes"/>
      <point x="209" y="167"/>
      <point x="213" y="124"/>
      <point x="214" y="111" type="curve"/>
      <point x="215" y="124"/>
      <point x="220" y="167"/>
      <point x="230" y="214" type="curve" smooth="yes"/>
      <point x="329" y="700" type="line"/>
      <point x="372" y="700" type="line"/>
      <point x="372" y="0" type="line"/>
      <point x="337" y="0" type="line"/>
      <point x="337" y="467" type="line" smooth="yes"/>
      <point x="337" y="514"/>
      <point x="338" y="576"/>
      <point x="338" y="594" type="curve"/>
      <point x="335" y="575"/>
      <point x="325" y="513"/>
      <point x="315" y="467" type="curve" smooth="yes"/>
      <point x="215" y="-12" type="line"/>
      <point x="212" y="-12" type="line"/>
      <point x="111" y="467" type="line" smooth="yes"/>
      <point x="101" y="514"/>
      <point x="92" y="574"/>
      <point x="89" y="594" type="curve"/>
      <point x="89" y="576"/>
      <point x="90" y="513"/>
      <point x="90" y="464" type="curve" smooth="yes"/>
      <point x="90" y="0" type="line"/>
    </contour>
  </outline>
</glyph>
<glyph name="N" format="1">
  <advance width="362"/>
  <unicode hex="004E"/>
  <outline>
    <contour>
      <point x="306" y="0" type="line"/>
      <point x="276" y="0" type="line"/>
      <point x="122" y="488" type="line" smooth="yes"/>
      <point x="108" y="534"/>
      <point x="94" y="583"/>
      <point x="90" y="604" type="curve"/>
      <point x="90" y="587"/>
      <point x="91" y="531"/>
      <point x="91" y="486" type="curve" smooth="yes"/>
      <point x="91" y="0" type="line"/>
      <point x="55" y="0" type="line"/>
      <point x="55" y="700" type="line"/>
      <point x="93" y="700" type="line"/>
      <point x="93" y="700"/>
      <point x="211" y="326"/>
      <point x="238" y="236" type="curve" smooth="yes"/>
      <point x="255" y="178"/>
      <point x="270" y="129"/>
      <point x="273" y="116" type="curve"/>
      <point x="272" y="140"/>
      <point x="271" y="184"/>
      <point x="271" y="222" type="curve" smooth="yes"/>
      <point x="271" y="700" type="line"/>
      <point x="306" y="700" type="line"/>
    </contour>
  </outline>
</glyph>
<glyph name="O" format="1">
  <advance width="348"/>
  <unicode hex="004F"/>
  <outline>
    <contour>
      <point x="306" y="350" type="curve" smooth="yes"/>
      <point x="306" y="98"/>
      <point x="264" y="-9"/>
      <point x="174" y="-9" type="curve" smooth="yes"/>
      <point x="84" y="-9"/>
      <point x="42" y="98"/>
      <point x="42" y="350" type="curve" smooth="yes"/>
      <point x="42" y="602"/>
      <point x="84" y="709"/>
      <point x="174" y="709" type="curve" smooth="yes"/>
      <point x="264" y="709"/>
      <point x="306" y="602"/>
    </contour>
    <contour>
      <point x="266" y="350" type="curve" smooth="yes"/>
      <point x="266" y="584"/>
      <point x="232" y="672"/>
      <point x="173" y="672" type="curve" smooth="yes"/>
      <point x="115" y="672"/>
      <point x="82" y="584"/>
      <point x="82" y="350" type="curve" smooth="yes"/>
      <point x="82" y="116"/>
      <point x="117" y="28"/>
      <point x="175" y="28" type="curve" smooth="yes"/>
      <point x="233" y="28"/>
      <point x="266" y="116"/>
    </contour>
  </outline>
</glyph>
<glyph name="P" format="1">
  <advance width="313"/>
  <unicode hex="0050"/>
  <outline>
    <contour>
      <point x="285" y="519" type="curve" smooth="yes"/>
      <point x="285" y="380"/>
      <point x="215" y="331"/>
      <point x="126" y="331" type="curve" smooth="yes"/>
      <point x="93" y="331" type="line"/>
      <point x="93" y="0" type="line"/>
      <point x="55" y="0" type="line"/>
      <point x="55" y="700" type="line"/>
      <point x="129" y="700" type="line" smooth="yes"/>
      <point x="221" y="700"/>
      <point x="285" y="652"/>
    </contour>
    <contour>
      <point x="247" y="517" type="curve" smooth="yes"/>
      <point x="247" y="622"/>
      <point x="202" y="663"/>
      <point x="128" y="663" type="curve" smooth="yes"/>
      <point x="93" y="663" type="line"/>
      <point x="93" y="368" type="line"/>
      <point x="128" y="368" type="line" smooth="yes"/>
      <point x="202" y="368"/>
      <point x="247" y="410"/>
    </contour>
  </outline>
</glyph>
<glyph name="Q" format="1">
  <advance width="348"/>
  <unicode hex="0051"/>
  <outline>
    <contour>
      <point x="306" y="14" type="line"/>
      <point x="281" y="-9" type="line"/>
      <point x="247" y="31" type="line"/>
      <point x="228" y="3"/>
      <point x="203" y="-9"/>
      <point x="174" y="-9" type="curve" smooth="yes"/>
      <point x="84" y="-9"/>
      <point x="42" y="98"/>
      <point x="42" y="350" type="curve" smooth="yes"/>
      <point x="42" y="602"/>
      <point x="84" y="709"/>
      <point x="174" y="709" type="curve" smooth="yes"/>
      <point x="264" y="709"/>
      <point x="306" y="602"/>
      <point x="306" y="350" type="curve" smooth="yes"/>
      <point x="306" y="212"/>
      <point x="292" y="119"/>
      <point x="266" y="62" type="curve"/>
    </contour>
    <contour>
      <point x="266" y="350" type="curve" smooth="yes"/>
      <point x="266" y="584"/>
      <point x="232" y="672"/>
      <point x="173" y="672" type="curve" smooth="yes"/>
      <point x="115" y="672"/>
      <point x="82" y="584"/>
      <point x="82" y="350" type="curve" smooth="yes"/>
      <point x="82" y="116"/>
      <point x="117" y="28"/>
      <point x="175" y="28" type="curve" smooth="yes"/>
      <point x="194" y="28"/>
      <point x="212" y="36"/>
      <point x="225" y="57" type="curve"/>
      <point x="175" y="117" type="line"/>
      <point x="200" y="141" type="line"/>
      <point x="241" y="92" type="line"/>
      <point x="258" y="140"/>
      <point x="266" y="221"/>
    </contour>
  </outline>
</glyph>
<glyph name="R" format="1">
  <advance width="324"/>
  <unicode hex="0052"/>
  <outline>
    <contour>
      <point x="294" y="0" type="line"/>
      <point x="254" y="0" type="line"/>
      <point x="163" y="344" type="line"/>
      <point x="150" y="342"/>
      <point x="135" y="341"/>
      <point x="118" y="341" type="curve" smooth="yes"/>
      <point x="115" y="341"/>
      <point x="97" y="341"/>
      <point x="93" y="341" type="curve"/>
      <point x="93" y="0" type="line"/>
      <point x="55" y="0" type="line"/>
      <point x="55" y="700" type="line"/>
      <point x="129" y="700" type="line" smooth="yes"/>
      <point x="221" y="700"/>
      <point x="285" y="651"/>
      <point x="285" y="526" type="curve" smooth="yes"/>
      <point x="285" y="435"/>
      <point x="252" y="383"/>
      <point x="201" y="358" type="curve"/>
    </contour>
    <contour>
      <point x="247" y="523" type="curve" smooth="yes"/>
      <point x="247" y="623"/>
      <point x="202" y="663"/>
      <point x="128" y="663" type="curve" smooth="yes"/>
      <point x="93" y="663" type="line"/>
      <point x="93" y="377" type="line"/>
      <point x="128" y="377" type="line" smooth="yes"/>
      <point x="202" y="377"/>
      <point x="247" y="422"/>
    </contour>
  </outline>
</glyph>
<glyph name="S" format="1">
  <advance width="308"/>
  <unicode hex="0053"/>
  <outline>
    <contour>
      <point x="268" y="144" type="curve" smooth="yes"/>
      <point x="268" y="51"/>
      <point x="225" y="-9"/>
      <point x="151" y="-9" type="curve" smooth="yes"/>
      <point x="81" y="-9"/>
      <point x="45" y="45"/>
      <point x="33" y="150" type="curve"/>
      <point x="71" y="159" type="line"/>
      <point x="83" y="62"/>
      <point x="110" y="28"/>
      <point x="152" y="28" type="curve" smooth="yes"/>
      <point x="202" y="28"/>
      <point x="230" y="71"/>
      <point x="230" y="139" type="curve" smooth="yes"/>
      <point x="230" y="210"/>
      <point x="210" y="275"/>
      <point x="135" y="359" type="curve" smooth="yes"/>
      <point x="60" y="445"/>
      <point x="39" y="494"/>
      <point x="39" y="569" type="curve" smooth="yes"/>
      <point x="39" y="652"/>
      <point x="80" y="709"/>
      <point x="148" y="709" type="curve" smooth="yes"/>
      <point x="215" y="709"/>
      <point x="247" y="663"/>
      <point x="266" y="573" type="curve"/>
      <point x="228" y="563" type="line"/>
      <point x="210" y="645"/>
      <point x="187" y="672"/>
      <point x="147" y="672" type="curve" smooth="yes"/>
      <point x="103" y="672"/>
      <point x="78" y="630"/>
      <point x="78" y="573" type="curve" smooth="yes"/>
      <point x="78" y="515"/>
      <point x="92" y="469"/>
      <point x="162" y="389" type="curve" smooth="yes"/>
      <point x="242" y="299"/>
      <point x="268" y="231"/>
    </contour>
  </outline>
</glyph>
<glyph name="T" format="1">
  <advance width="287"/>
  <unicode hex="0054"/>
  <outline>
    <contour>
      <point x="266" y="664" type="line"/>
      <point x="162" y="664" type="line"/>
      <point x="162" y="0" type="line"/>
      <point x="124" y="0" type="line"/>
      <point x="124" y="664" type="line"/>
      <point x="21" y="664" type="line"/>
      <point x="21" y="700" type="line"/>
      <point x="266" y="700" type="line"/>
    </contour>
  </outline>
</glyph>
<glyph name="U" format="1">
  <advance width="360"/>
  <unicode hex="0055"/>
  <outline>
    <contour>
      <point x="306" y="151" type="line" smooth="yes"/>
      <point x="306" y="50"/>
      <point x="258" y="-9"/>
      <point x="179" y="-9" type="curve" smooth="yes"/>
      <point x="100" y="-9"/>
      <point x="54" y="50"/>
      <point x="54" y="151" type="curve" smooth="yes"/>
      <point x="54" y="700" type="line"/>
      <point x="92" y="700" type="line"/>
      <point x="92" y="152" type="line" smooth="yes"/>
      <point x="92" y="73"/>
      <point x="124" y="28"/>
      <point x="180" y="28" type="curve" smooth="yes"/>
      <point x="236" y="28"/>
      <point x="268" y="73"/>
      <point x="268" y="152" type="curve" smooth="yes"/>
      <point x="268" y="700" type="line"/>
      <point x="306" y="700" type="line"/>
    </contour>
  </outline>
</glyph>
<glyph name="V" format="1">
  <advance width="336"/>
  <unicode hex="0056"/>
  <outline>
    <contour>
      <point x="303" y="700" type="line"/>
      <point x="187" y="-1" type="line"/>
      <point x="147" y="-1" type="line"/>
      <point x="33" y="700" type="line"/>
      <point x="71" y="700" type="line"/>
      <point x="142" y="245" type="line" smooth="yes"/>
      <point x="149" y="200"/>
      <point x="165" y="95"/>
      <point x="168" y="56" type="curve"/>
      <point x="172" y="95"/>
      <point x="187" y="200"/>
      <point x="194" y="245" type="curve" smooth="yes"/>
      <point x="265" y="700" type="line"/>
    </contour>
  </outline>
</glyph>
<glyph name="W" format="1">
  <advance width="443"/>
  <unicode hex="0057"/>
  <outline>
    <contour>
      <point x="413" y="700" type="line"/>
      <point x="332" y="-1" type="line"/>
      <point x="296" y="-1" type="line"/>
      <point x="296" y="-1"/>
      <point x="249" y="351"/>
      <point x="238" y="443" type="curve" smooth="yes"/>
      <point x="230" y="515"/>
      <point x="221" y="581"/>
      <point x="221" y="600" type="curve"/>
      <point x="221" y="581"/>
      <point x="212" y="514"/>
      <point x="204" y="442" type="curve" smooth="yes"/>
      <point x="193" y="351"/>
      <point x="146" y="-1"/>
      <point x="146" y="-1" type="curve"/>
      <point x="111" y="-1" type="line"/>
      <point x="30" y="700" type="line"/>
      <point x="66" y="700" type="line"/>
      <point x="116" y="251" type="line" smooth="yes"/>
      <point x="119" y="223"/>
      <point x="129" y="124"/>
      <point x="131" y="99" type="curve"/>
      <point x="133" y="124"/>
      <point x="144" y="223"/>
      <point x="148" y="252" type="curve" smooth="yes"/>
      <point x="206" y="700" type="line"/>
      <point x="237" y="700" type="line"/>
      <point x="295" y="251" type="line" smooth="yes"/>
      <point x="299" y="223"/>
      <point x="310" y="124"/>
      <point x="312" y="99" type="curve"/>
      <point x="314" y="124"/>
      <point x="324" y="221"/>
      <point x="327" y="249" type="curve" smooth="yes"/>
      <point x="377" y="700" type="line"/>
    </contour>
  </outline>
</glyph>
<glyph name="X" format="1">
  <advance width="306"/>
  <unicode hex="0058"/>
  <outline>
    <contour>
      <point x="281" y="0" type="line"/>
      <point x="242" y="0" type="line"/>
      <point x="189" y="183" type="line" smooth="yes"/>
      <point x="181" y="211"/>
      <point x="156" y="295"/>
      <point x="152" y="316" type="curve"/>
      <point x="149" y="295"/>
      <point x="124" y="211"/>
      <point x="116" y="183" type="curve" smooth="yes"/>
      <point x="64" y="0" type="line"/>
      <point x="25" y="0" type="line"/>
      <point x="133" y="363" type="line"/>
      <point x="33" y="700" type="line"/>
      <point x="72" y="700" type="line"/>
      <point x="124" y="521" type="line" smooth="yes"/>
      <point x="132" y="493"/>
      <point x="150" y="432"/>
      <point x="154" y="411" type="curve"/>
      <point x="158" y="432"/>
      <point x="176" y="493"/>
      <point x="184" y="521" type="curve" smooth="yes"/>
      <point x="234" y="700" type="line"/>
      <point x="273" y="700" type="line"/>
      <point x="173" y="364" type="line"/>
    </contour>
  </outline>
</glyph>
<glyph name="Y" format="1">
  <advance width="312"/>
  <unicode hex="0059"/>
  <outline>
    <contour>
      <point x="291" y="700" type="line"/>
      <point x="175" y="302" type="line"/>
      <point x="175" y="0" type="line"/>
      <point x="137" y="0" type="line"/>
      <point x="137" y="301" type="line"/>
      <point x="20" y="700" type="line"/>
      <point x="60" y="700" type="line"/>
      <point x="126" y="464" type="line" smooth="yes"/>
      <point x="135" y="430"/>
      <point x="152" y="366"/>
      <point x="156" y="343" type="curve"/>
      <point x="160" y="366"/>
      <point x="178" y="432"/>
      <point x="187" y="465" type="curve" smooth="yes"/>
      <point x="253" y="700" type="line"/>
    </contour>
  </outline>
</glyph>
<glyph name="Z" format="1">
  <advance width="285"/>
  <unicode hex="005A"/>
  <outline>
    <contour>
      <point x="29" y="0" type="line"/>
      <point x="29" y="34" type="line"/>
      <point x="213" y="664" type="line"/>
      <point x="44" y="664" type="line"/>
      <point x="44" y="700" type="line"/>
      <point x="251" y="700" type="line"/>
      <point x="251" y="666" type="line"/>
      <point x="68" y="36" type="line"/>
      <point x="251" y="36" type="line"/>
      <point x="251" y="0" type="line"/>
    </contour>
  </outline>
</glyph>
<glyph name="bracketleft" format="1">
  <advance width="209"/>
  <unicode hex="005B"/>
  <outline>
    <contour>
      <point x="181" y="-100" type="line"/>
      <point x="58" y="-100" type="line"/>
      <point x="58" y="700" type="line"/>
      <point x="181" y="700" type="line"/>
      <point x="181" y="666" type="line"/>
      <point x="94" y="666" type="line"/>
      <point x="94" y="-66" type="line"/>
      <point x="181" y="-66" type="line"/>
    </contour>
  </outline>
</glyph>
<glyph name="backslash" format="1">
  <advance width="201"/>
  <unicode hex="005C"/>
  <outline>
    <contour>
      <point x="205" y="-90" type="line"/>
      <point x="170" y="-90" type="line"/>
      <point x="-5" y="790" type="line"/>
      <point x="31" y="790" type="line"/>
    </contour>
  </outline>
</glyph>
<glyph name="bracketright" format="1">
  <advance width="209"/>
  <unicode hex="005D"/>
  <outline>
    <contour>
      <point x="151" y="-100" type="line"/>
      <point x="28" y="-100" type="line"/>
      <point x="28" y="-66" type="line"/>
      <point x="115" y="-66" type="line"/>
      <point x="115" y="666" type="line"/>
      <point x="28" y="666" type="line"/>
      <point x="28" y="700" type="line"/>
      <point x="151" y="700" type="line"/>
    </contour>
  </outline>
</glyph>
<glyph name="asciicircum" format="1">
  <advance width="291"/>
  <unicode hex="005E"/>
  <outline>
    <contour>
      <point x="262" y="382" type="line"/>
      <point x="223" y="382" type="line"/>
      <point x="145" y="648" type="line"/>
      <point x="67" y="382" type="line"/>
      <point x="29" y="382" type="line"/>
      <point x="129" y="700" type="line"/>
      <point x="162" y="700" type="line"/>
    </contour>
  </outline>
</glyph>
<glyph name="underscore" format="1">
  <advance width="239"/>
  <unicode hex="005F"/>
  <outline>
    <contour>
      <point x="244" y="-132" type="line"/>
      <point x="-5" y="-132" type="line"/>
      <point x="-5" y="-98" type="line"/>
      <point x="244" y="-98" type="line"/>
    </contour>
  </outline>
</glyph>
<glyph name="grave" format="1">
  <advance width="322"/>
  <unicode hex="0060"/>
  <outline>
    <contour>
      <point x="202" y="598" type="line"/>
      <point x="173" y="598" type="line"/>
      <point x="72" y="758" type="line"/>
      <point x="123" y="758" type="line"/>
    </contour>
  </outline>
</glyph>
<glyph name="a" format="1">
  <advance width="299"/>
  <unicode hex="0061"/>
  <outline>
    <contour>
      <point x="251" y="0" type="line"/>
      <point x="214" y="0" type="line"/>
      <point x="214" y="33" type="line"/>
      <point x="192" y="7"/>
      <point x="160" y="-9"/>
      <point x="130" y="-9" type="curve" smooth="yes"/>
      <point x="66" y="-9"/>
      <point x="31" y="45"/>
      <point x="31" y="162" type="curve" smooth="yes"/>
      <point x="31" y="283"/>
      <point x="72" y="332"/>
      <point x="139" y="332" type="curve" smooth="yes"/>
      <point x="169" y="332"/>
      <point x="192" y="322"/>
      <point x="214" y="304" type="curve"/>
      <point x="214" y="413" type="line" smooth="yes"/>
      <point x="214" y="437"/>
      <point x="212" y="455"/>
      <point x="206" y="469" type="curve" smooth="yes"/>
      <point x="197" y="489"/>
      <point x="179" y="498"/>
      <point x="154" y="498" type="curve" smooth="yes"/>
      <point x="125" y="498"/>
      <point x="100" y="483"/>
      <point x="71" y="453" type="curve"/>
      <point x="49" y="481" type="line"/>
      <point x="73" y="507"/>
      <point x="113" y="534"/>
      <point x="156" y="534" type="curve" smooth="yes"/>
      <point x="197" y="534"/>
      <point x="227" y="519"/>
      <point x="241" y="486" type="curve" smooth="yes"/>
      <point x="248" y="469"/>
      <point x="251" y="446"/>
      <point x="251" y="416" type="curve" smooth="yes"/>
    </contour>
    <contour>
      <point x="214" y="70" type="curve"/>
      <point x="214" y="269" type="line"/>
      <point x="195" y="285"/>
      <point x="173" y="297"/>
      <point x="140" y="297" type="curve" smooth="yes"/>
      <point x="92" y="297"/>
      <point x="69" y="254"/>
      <point x="69" y="163" type="curve" smooth="yes"/>
      <point x="69" y="76"/>
      <point x="91" y="26"/>
      <point x="136" y="26" type="curve" smooth="yes"/>
      <point x="161" y="26"/>
      <point x="191" y="41"/>
    </contour>
  </outline>
</glyph>
<glyph name="c" format="1">
  <advance width="284"/>
  <unicode hex="0063"/>
  <outline>
    <contour>
      <point x="259" y="109" type="line"/>
      <point x="239" y="34"/>
      <point x="206" y="-9"/>
      <point x="155" y="-9" type="curve" smooth="yes"/>
      <point x="76" y="-9"/>
      <point x="37" y="96"/>
      <point x="37" y="260" type="curve" smooth="yes"/>
      <point x="37" y="430"/>
      <point x="77" y="534"/>
      <point x="156" y="534" type="curve" smooth="yes"/>
      <point x="214" y="534"/>
      <point x="242" y="478"/>
      <point x="257" y="411" type="curve"/>
      <point x="224" y="395" type="line"/>
      <point x="211" y="453"/>
      <point x="194" y="498"/>
      <point x="154" y="498" type="curve" smooth="yes"/>
      <point x="102" y="498"/>
      <point x="74" y="413"/>
      <point x="74" y="261" type="curve" smooth="yes"/>
      <point x="74" y="123"/>
      <point x="98" y="27"/>
      <point x="156" y="27" type="curve" smooth="yes"/>
      <point x="190" y="27"/>
      <point x="210" y="59"/>
      <point x="229" y="126" type="curve"/>
    </contour>
  </outline>
</glyph>
<glyph name="d" format="1">
  <advance width="314"/>
  <unicode hex="0064"/>
  <outline>
    <contour>
      <point x="264" y="0" type="line"/>
      <point x="227" y="0" type="line"/>
      <point x="227" y="37" type="line"/>
      <point x="204" y="9"/>
      <point x="177" y="-9"/>
      <point x="144" y="-9" type="curve" smooth="yes"/>
      <point x="69" y="-9"/>
      <point x="37" y="76"/>
      <point x="37" y="261" type="curve" smooth="yes"/>
      <point x="37" y="452"/>
      <point x="72" y="534"/>
      <point x="147" y="534" type="curve" smooth="yes"/>
      <point x="179" y="534"/>
      <point x="204" y="516"/>
      <point x="227" y="490" type="curve"/>
      <point x="227" y="707" type="line"/>
      <point x="264" y="729" type="line"/>
    </contour>
    <contour>
      <point x="227" y="70" type="curve"/>
      <point x="227" y="455" type="line"/>
      <point x="202" y="483"/>
      <point x="178" y="499"/>
      <point x="149" y="499" type="curve" smooth="yes"/>
      <point x="98" y="499"/>
      <point x="74" y="421"/>
      <point x="74" y="263" type="curve" smooth="yes"/>
      <point x="74" y="89"/>
      <point x="101" y="26"/>
      <point x="151" y="26" type="curve" smooth="yes"/>
      <point x="179" y="26"/>
      <point x="205" y="43"/>
    </contour>
  </outline>
</glyph>
<glyph name="e" format="1">
  <advance width="304"/>
  <unicode hex="0065"/>
  <outline>
    <contour>
      <point x="267" y="251" type="curve"/>
      <point x="73" y="251" type="line"/>
      <point x="73" y="249"/>
      <point x="73" y="247"/>
      <point x="73" y="246" type="curve" smooth="yes"/>
      <point x="75" y="116"/>
      <point x="99" y="27"/>
      <point x="156" y="27" type="curve" smooth="yes"/>
      <point x="194" y="27"/>
      <point x="216" y="55"/>
      <point x="235" y="112" type="curve"/>
      <point x="266" y="95" type="line"/>
      <point x="244" y="31"/>
      <point x="209" y="-9"/>
      <point x="156" y="-9" type="curve" smooth="yes"/>
      <point x="73" y="-9"/>
      <point x="37" y="84"/>
      <point x="37" y="260" type="curve" smooth="yes"/>
      <point x="37" y="430"/>
      <point x="75" y="534"/>
      <point x="155" y="534" type="curve" smooth="yes"/>
      <point x="232" y="534"/>
      <point x="267" y="427"/>
      <point x="267" y="263" type="curve" smooth="yes"/>
      <point x="267" y="259"/>
      <point x="267" y="254"/>
    </contour>
    <contour>
      <point x="230" y="286" type="line"/>
      <point x="230" y="289"/>
      <point x="230" y="295"/>
      <point x="230" y="298" type="curve" smooth="yes"/>
      <point x="227" y="409"/>
      <point x="205" y="498"/>
      <point x="154" y="498" type="curve" smooth="yes"/>
      <point x="103" y="498"/>
      <point x="76" y="420"/>
      <point x="73" y="286" type="curve"/>
    </contour>
  </outline>
</glyph>
<glyph name="f" format="1">
  <advance width="179"/>
  <unicode hex="0066"/>
  <outline>
    <contour>
      <point x="182" y="684" type="line"/>
      <point x="170" y="689"/>
      <point x="159" y="691"/>
      <point x="144" y="691" type="curve" smooth="yes"/>
      <point x="117" y="691"/>
      <point x="97" y="672"/>
      <point x="97" y="630" type="curve" smooth="yes"/>
      <point x="97" y="525" type="line"/>
      <point x="167" y="525" type="line"/>
      <point x="167" y="491" type="line"/>
      <point x="97" y="491" type="line"/>
      <point x="97" y="0" type="line"/>
      <point x="62" y="0" type="line"/>
      <point x="62" y="491" type="line"/>
      <point x="16" y="491" type="line"/>
      <point x="16" y="525" type="line"/>
      <point x="62" y="525" type="line"/>
      <point x="62" y="627" type="line" smooth="yes"/>
      <point x="62" y="696"/>
      <point x="93" y="726"/>
      <point x="140" y="726" type="curve" smooth="yes"/>
      <point x="158" y="726"/>
      <point x="169" y="724"/>
      <point x="182" y="719" type="curve"/>
    </contour>
  </outline>
</glyph>
<glyph name="i" format="1">
  <advance width="148"/>
  <unicode hex="0069"/>
  <outline>
    <contour>
      <point x="74" y="707" type="curve" smooth="yes"/>
      <point x="92" y="707"/>
      <point x="108" y="691"/>
      <point x="108" y="673" type="curve" smooth="yes"/>
      <point x="108" y="655"/>
      <point x="92" y="640"/>
      <point x="74" y="640" type="curve" smooth="yes"/>
      <point x="56" y="640"/>
      <point x="40" y="655"/>
      <point x="40" y="673" type="curve" smooth="yes"/>
      <point x="40" y="691"/>
      <point x="56" y="707"/>
    </contour>
    <contour>
      <point x="93" y="0" type="line"/>
      <point x="56" y="0" type="line"/>
      <point x="56" y="525" type="line"/>
      <point x="93" y="525" type="line"/>
    </contour>
  </outline>
</glyph>
<glyph name="j" format="1">
  <advance width="148"/>
  <unicode hex="006A"/>
  <outline>
    <contour>
      <point x="74" y="707" type="curve" smooth="yes"/>
      <point x="92" y="707"/>
      <point x="108" y="691"/>
      <point x="108" y="673" type="curve" smooth="yes"/>
      <point x="108" y="655"/>
      <point x="92" y="640"/>
      <point x="74" y="640" type="curve" smooth="yes"/>
      <point x="56" y="640"/>
      <point x="40" y="655"/>
      <point x="40" y="673" type="curve" smooth="yes"/>
      <point x="40" y="691"/>
      <point x="56" y="707"/>
    </contour>
    <contour>
      <point x="93" y="-10" type="line" smooth="yes"/>
      <point x="93" y="-126"/>
      <point x="64" y="-160"/>
      <point x="3" y="-188" type="curve"/>
      <point x="-12" y="-158" type="line"/>
      <point x="39" y="-133"/>
      <point x="56" y="-107"/>
      <point x="56" y="-13" type="curve" smooth="yes"/>
      <point x="56" y="525" type="line"/>
      <point x="93" y="525" type="line"/>
    </contour>
  </outline>
</glyph>
<glyph name="k" format="1">
  <advance width="286"/>
  <unicode hex="006B"/>
  <outline>
    <contour>
      <point x="273" y="0" type="line"/>
      <point x="233" y="0" type="line"/>
      <point x="133" y="281" type="line"/>
      <point x="87" y="190" type="line"/>
      <point x="87" y="0" type="line"/>
      <point x="50" y="0" type="line"/>
      <point x="50" y="707" type="line"/>
      <point x="87" y="729" type="line"/>
      <point x="87" y="729"/>
      <point x="87" y="265"/>
      <point x="87" y="249" type="curve"/>
      <point x="93" y="263"/>
      <point x="120" y="320"/>
      <point x="127" y="334" type="curve" smooth="yes"/>
      <point x="222" y="525" type="line"/>
      <point x="264" y="525" type="line"/>
      <point x="156" y="321" type="line"/>
    </contour>
  </outline>
</glyph>
<glyph name="l" format="1">
  <advance width="148"/>
  <unicode hex="006C"/>
  <outline>
    <contour>
      <point x="93" y="0" type="line"/>
      <point x="56" y="0" type="line"/>
      <point x="56" y="707" type="line"/>
      <point x="93" y="729" type="line"/>
    </contour>
  </outline>
</glyph>
<glyph name="m" format="1">
  <advance width="483"/>
  <unicode hex="006D"/>
  <outline>
    <contour>
      <point x="50" y="0" type="line"/>
      <point x="50" y="525" type="line"/>
      <point x="87" y="525" type="line"/>
      <point x="87" y="495" type="line"/>
      <point x="109" y="517"/>
      <point x="140" y="534"/>
      <point x="175" y="534" type="curve" smooth="yes"/>
      <point x="212" y="534"/>
      <point x="234" y="520"/>
      <point x="248" y="492" type="curve"/>
      <point x="276" y="519"/>
      <point x="310" y="534"/>
      <point x="347" y="534" type="curve" smooth="yes"/>
      <point x="381" y="534"/>
      <point x="406" y="520"/>
      <point x="420" y="494" type="curve" smooth="yes"/>
      <point x="432" y="472"/>
      <point x="435" y="440"/>
      <point x="435" y="401" type="curve" smooth="yes"/>
      <point x="435" y="0" type="line"/>
      <point x="398" y="0" type="line"/>
      <point x="398" y="399" type="line" smooth="yes"/>
      <point x="398" y="430"/>
      <point x="396" y="453"/>
      <point x="388" y="469" type="curve" smooth="yes"/>
      <point x="378" y="490"/>
      <point x="361" y="499"/>
      <point x="336" y="499" type="curve" smooth="yes"/>
      <point x="309" y="499"/>
      <point x="281" y="485"/>
      <point x="257" y="463" type="curve"/>
      <point x="260" y="455"/>
      <point x="261" y="412"/>
      <point x="261" y="400" type="curve" smooth="yes"/>
      <point x="261" y="0" type="line"/>
      <point x="224" y="0" type="line"/>
      <point x="224" y="402" type="line" smooth="yes"/>
      <point x="224" y="429"/>
      <point x="223" y="450"/>
      <point x="217" y="466" type="curve" smooth="yes"/>
      <point x="208" y="489"/>
      <point x="189" y="499"/>
      <point x="163" y="499" type="curve" smooth="yes"/>
      <point x="137" y="499"/>
      <point x="111" y="484"/>
      <point x="87" y="462" type="curve"/>
      <point x="87" y="0" type="line"/>
    </contour>
  </outline>
</glyph>
<glyph name="n" format="1">
  <advance width="318"/>
  <unicode hex="006E"/>
  <outline>
    <contour>
      <point x="270" y="0" type="line"/>
      <point x="233" y="0" type="line"/>
      <point x="233" y="397" type="line" smooth="yes"/>
      <point x="233" y="426"/>
      <point x="231" y="448"/>
      <point x="225" y="464" type="curve" smooth="yes"/>
      <point x="215" y="488"/>
      <point x="196" y="499"/>
      <point x="168" y="499" type="curve" smooth="yes"/>
      <point x="139" y="499"/>
      <point x="111" y="483"/>
      <point x="87" y="461" type="curve"/>
      <point x="87" y="0" type="line"/>
      <point x="50" y="0" type="line"/>
      <point x="50" y="525" type="line"/>
      <point x="87" y="525" type="line"/>
      <point x="87" y="494" type="line"/>
      <point x="111" y="518"/>
      <point x="142" y="534"/>
      <point x="179" y="534" type="curve" smooth="yes"/>
      <point x="217" y="534"/>
      <point x="242" y="519"/>
      <point x="257" y="490" type="curve" smooth="yes"/>
      <point x="269" y="467"/>
      <point x="270" y="437"/>
      <point x="270" y="399" type="curve" smooth="yes"/>
    </contour>
  </outline>
</glyph>
<glyph name="o" format="1">
  <advance width="322"/>
  <unicode hex="006F"/>
  <outline>
    <contour>
      <point x="285" y="262" type="curve" smooth="yes"/>
      <point x="285" y="93"/>
      <point x="245" y="-9"/>
      <point x="161" y="-9" type="curve" smooth="yes"/>
      <point x="76" y="-9"/>
      <point x="37" y="93"/>
      <point x="37" y="262" type="curve" smooth="yes"/>
      <point x="37" y="431"/>
      <point x="76" y="534"/>
      <point x="161" y="534" type="curve" smooth="yes"/>
      <point x="245" y="534"/>
      <point x="285" y="431"/>
    </contour>
    <contour>
      <point x="247" y="262" type="curve" smooth="yes"/>
      <point x="247" y="411"/>
      <point x="220" y="498"/>
      <point x="160" y="498" type="curve" smooth="yes"/>
      <point x="100" y="498"/>
      <point x="74" y="411"/>
      <point x="74" y="262" type="curve" smooth="yes"/>
      <point x="74" y="113"/>
      <point x="101" y="27"/>
      <point x="161" y="27" type="curve" smooth="yes"/>
      <point x="222" y="27"/>
      <point x="247" y="114"/>
    </contour>
  </outline>
</glyph>
<glyph name="p" format="1">
  <advance width="314"/>
  <unicode hex="0070"/>
  <outline>
    <contour>
      <point x="277" y="264" type="curve" smooth="yes"/>
      <point x="277" y="73"/>
      <point x="242" y="-9"/>
      <point x="167" y="-9" type="curve" smooth="yes"/>
      <point x="135" y="-9"/>
      <point x="110" y="7"/>
      <point x="87" y="33" type="curve"/>
      <point x="87" y="-167" type="line"/>
      <point x="50" y="-190" type="line"/>
      <point x="50" y="525" type="line"/>
      <point x="87" y="525" type="line"/>
      <point x="87" y="490" type="line"/>
      <point x="110" y="518"/>
      <point x="137" y="534"/>
      <point x="170" y="534" type="curve" smooth="yes"/>
      <point x="245" y="534"/>
      <point x="277" y="449"/>
    </contour>
    <contour>
      <point x="240" y="262" type="curve" smooth="yes"/>
      <point x="240" y="436"/>
      <point x="213" y="499"/>
      <point x="163" y="499" type="curve" smooth="yes"/>
      <point x="135" y="499"/>
      <point x="109" y="482"/>
      <point x="87" y="455" type="curve"/>
      <point x="87" y="70" type="line"/>
      <point x="111" y="42"/>
      <point x="136" y="26"/>
      <point x="165" y="26" type="curve" smooth="yes"/>
      <point x="215" y="26"/>
      <point x="240" y="104"/>
    </contour>
  </outline>
</glyph>
<glyph name="q" format="1">
  <advance width="314"/>
  <unicode hex="0071"/>
  <outline>
    <contour>
      <point x="264" y="-167" type="line"/>
      <point x="227" y="-190" type="line"/>
      <point x="227" y="35" type="line"/>
      <point x="204" y="7"/>
      <point x="177" y="-9"/>
      <point x="144" y="-9" type="curve" smooth="yes"/>
      <point x="69" y="-9"/>
      <point x="37" y="76"/>
      <point x="37" y="261" type="curve" smooth="yes"/>
      <point x="37" y="452"/>
      <point x="72" y="534"/>
      <point x="147" y="534" type="curve" smooth="yes"/>
      <point x="179" y="534"/>
      <point x="204" y="518"/>
      <point x="227" y="492" type="curve"/>
      <point x="227" y="525" type="line"/>
      <point x="264" y="525" type="line"/>
    </contour>
    <contour>
      <point x="227" y="70" type="curve"/>
      <point x="227" y="455" type="line"/>
      <point x="202" y="483"/>
      <point x="178" y="499"/>
      <point x="149" y="499" type="curve" smooth="yes"/>
      <point x="98" y="499"/>
      <point x="74" y="421"/>
      <point x="74" y="263" type="curve" smooth="yes"/>
      <point x="74" y="89"/>
      <point x="101" y="26"/>
      <point x="151" y="26" type="curve" smooth="yes"/>
      <point x="179" y="26"/>
      <point x="205" y="43"/>
    </contour>
  </outline>
</glyph>
<glyph name="r" format="1">
  <advance width="209"/>
  <unicode hex="0072"/>
  <outline>
    <contour>
      <point x="211" y="525" type="curve"/>
      <point x="200" y="486" type="line"/>
      <point x="185" y="493"/>
      <point x="173" y="495"/>
      <point x="154" y="495" type="curve" smooth="yes"/>
      <point x="128" y="495"/>
      <point x="106" y="483"/>
      <point x="87" y="461" type="curve"/>
      <point x="87" y="0" type="line"/>
      <point x="50" y="0" type="line"/>
      <point x="50" y="525" type="line"/>
      <point x="87" y="525" type="line"/>
      <point x="87" y="493" type="line"/>
      <point x="106" y="517"/>
      <point x="133" y="533"/>
      <point x="165" y="533" type="curve" smooth="yes"/>
      <point x="184" y="533"/>
      <point x="200" y="530"/>
    </contour>
  </outline>
</glyph>
<glyph name="s" format="1">
  <advance width="274"/>
  <unicode hex="0073"/>
  <outline>
    <contour>
      <point x="245" y="111" type="curve" smooth="yes"/>
      <point x="245" y="41"/>
      <point x="202" y="-9"/>
      <point x="140" y="-9" type="curve" smooth="yes"/>
      <point x="85" y="-9"/>
      <point x="45" y="26"/>
      <point x="28" y="94" type="curve"/>
      <point x="60" y="113" type="line"/>
      <point x="76" y="55"/>
      <point x="105" y="27"/>
      <point x="140" y="27" type="curve" smooth="yes"/>
      <point x="182" y="27"/>
      <point x="208" y="60"/>
      <point x="208" y="107" type="curve" smooth="yes"/>
      <point x="208" y="165"/>
      <point x="190" y="198"/>
      <point x="126" y="257" type="curve" smooth="yes"/>
      <point x="65" y="312"/>
      <point x="34" y="350"/>
      <point x="34" y="419" type="curve" smooth="yes"/>
      <point x="34" y="485"/>
      <point x="75" y="534"/>
      <point x="134" y="534" type="curve" smooth="yes"/>
      <point x="188" y="534"/>
      <point x="219" y="499"/>
      <point x="239" y="443" type="curve"/>
      <point x="206" y="424" type="line"/>
      <point x="189" y="469"/>
      <point x="169" y="498"/>
      <point x="132" y="498" type="curve" smooth="yes"/>
      <point x="96" y="498"/>
      <point x="71" y="468"/>
      <point x="71" y="422" type="curve" smooth="yes"/>
      <point x="71" y="373"/>
      <point x="88" y="344"/>
      <point x="148" y="289" type="curve" smooth="yes"/>
      <point x="214" y="230"/>
      <point x="245" y="185"/>
    </contour>
  </outline>
</glyph>
<glyph name="t" format="1">
  <advance width="196"/>
  <unicode hex="0074"/>
  <outline>
    <contour>
      <point x="179" y="38" type="curve"/>
      <point x="174" y="1" type="line"/>
      <point x="160" y="-5"/>
      <point x="149" y="-8"/>
      <point x="131" y="-8" type="curve" smooth="yes"/>
      <point x="104" y="-8"/>
      <point x="83" y="3"/>
      <point x="72" y="24" type="curve" smooth="yes"/>
      <point x="64" y="39"/>
      <point x="61" y="58"/>
      <point x="61" y="82" type="curve" smooth="yes"/>
      <point x="61" y="491" type="line"/>
      <point x="15" y="491" type="line"/>
      <point x="15" y="525" type="line"/>
      <point x="61" y="525" type="line"/>
      <point x="61" y="695" type="line"/>
      <point x="96" y="716" type="line"/>
      <point x="96" y="525" type="line"/>
      <point x="171" y="525" type="line"/>
      <point x="171" y="491" type="line"/>
      <point x="96" y="491" type="line"/>
      <point x="96" y="84" type="line" smooth="yes"/>
      <point x="96" y="69"/>
      <point x="99" y="52"/>
      <point x="104" y="45" type="curve" smooth="yes"/>
      <point x="111" y="34"/>
      <point x="123" y="28"/>
      <point x="137" y="28" type="curve" smooth="yes"/>
      <point x="152" y="28"/>
      <point x="162" y="30"/>
    </contour>
  </outline>
</glyph>
<glyph name="u" format="1">
  <advance width="318"/>
  <unicode hex="0075"/>
  <outline>
    <contour>
      <point x="267" y="0" type="line"/>
      <point x="230" y="0" type="line"/>
      <point x="230" y="31" type="line"/>
      <point x="206" y="7"/>
      <point x="176" y="-9"/>
      <point x="139" y="-9" type="curve" smooth="yes"/>
      <point x="72" y="-9"/>
      <point x="47" y="38"/>
      <point x="47" y="126" type="curve" smooth="yes"/>
      <point x="47" y="525" type="line"/>
      <point x="84" y="525" type="line"/>
      <point x="84" y="128" type="line" smooth="yes"/>
      <point x="84" y="56"/>
      <point x="102" y="26"/>
      <point x="150" y="26" type="curve" smooth="yes"/>
      <point x="178" y="26"/>
      <point x="207" y="42"/>
      <point x="230" y="64" type="curve"/>
      <point x="230" y="525" type="line"/>
      <point x="267" y="525" type="line"/>
    </contour>
  </outline>
</glyph>
<glyph name="v" format="1">
  <advance width="289"/>
  <unicode hex="0076"/>
  <outline>
    <contour>
      <point x="265" y="525" type="line"/>
      <point x="163" y="-3" type="line"/>
      <point x="125" y="-3" type="line"/>
      <point x="24" y="525" type="line"/>
      <point x="63" y="525" type="line"/>
      <point x="125" y="171" type="line" smooth="yes"/>
      <point x="130" y="142"/>
      <point x="142" y="71"/>
      <point x="145" y="47" type="curve"/>
      <point x="147" y="71"/>
      <point x="159" y="142"/>
      <point x="164" y="171" type="curve" smooth="yes"/>
      <point x="227" y="525" type="line"/>
    </contour>
  </outline>
</glyph>
<glyph name="w" format="1">
  <advance width="407"/>
  <unicode hex="0077"/>
  <outline>
    <contour>
      <point x="378" y="525" type="line"/>
      <point x="310" y="-3" type="line"/>
      <point x="275" y="-3" type="line"/>
      <point x="223" y="323" type="line" smooth="yes"/>
      <point x="218" y="355"/>
      <point x="206" y="435"/>
      <point x="204" y="467" type="curve"/>
      <point x="201" y="435"/>
      <point x="189" y="355"/>
      <point x="184" y="322" type="curve" smooth="yes"/>
      <point x="132" y="-3" type="line"/>
      <point x="97" y="-3" type="line"/>
      <point x="29" y="525" type="line"/>
      <point x="67" y="525" type="line"/>
      <point x="102" y="222" type="line" smooth="yes"/>
      <point x="106" y="187"/>
      <point x="116" y="97"/>
      <point x="117" y="70" type="curve"/>
      <point x="119" y="97"/>
      <point x="133" y="186"/>
      <point x="138" y="219" type="curve" smooth="yes"/>
      <point x="186" y="526" type="line"/>
      <point x="221" y="526" type="line"/>
      <point x="269" y="220" type="line" smooth="yes"/>
      <point x="274" y="187"/>
      <point x="288" y="97"/>
      <point x="290" y="70" type="curve"/>
      <point x="292" y="97"/>
      <point x="301" y="185"/>
      <point x="305" y="220" type="curve" smooth="yes"/>
      <point x="340" y="525" type="line"/>
    </contour>
  </outline>
</glyph>
<glyph name="x" format="1">
  <advance width="273"/>
  <unicode hex="0078"/>
  <outline>
    <contour>
      <point x="251" y="0" type="line"/>
      <point x="213" y="0" type="line"/>
      <point x="164" y="150" type="line" smooth="yes"/>
      <point x="159" y="166"/>
      <point x="139" y="228"/>
      <point x="136" y="241" type="curve"/>
      <point x="134" y="228"/>
      <point x="113" y="166"/>
      <point x="108" y="150" type="curve" smooth="yes"/>
      <point x="59" y="0" type="line"/>
      <point x="22" y="0" type="line"/>
      <point x="117" y="280" type="line"/>
      <point x="33" y="525" type="line"/>
      <point x="72" y="525" type="line"/>
      <point x="108" y="412" type="line" smooth="yes"/>
      <point x="113" y="396"/>
      <point x="134" y="332"/>
      <point x="136" y="319" type="curve"/>
      <point x="139" y="332"/>
      <point x="160" y="397"/>
      <point x="165" y="413" type="curve" smooth="yes"/>
      <point x="202" y="525" type="line"/>
      <point x="240" y="525" type="line"/>
      <point x="155" y="280" type="line"/>
    </contour>
  </outline>
</glyph>
<glyph name="y" format="1">
  <advance width="289"/>
  <unicode hex="0079"/>
  <outline>
    <contour>
      <point x="265" y="525" type="line"/>
      <point x="128" y="-185" type="line"/>
      <point x="91" y="-185" type="line"/>
      <point x="128" y="-13" type="line"/>
      <point x="24" y="525" type="line"/>
      <point x="63" y="525" type="line"/>
      <point x="122" y="187" type="line" smooth="yes"/>
      <point x="127" y="158"/>
      <point x="142" y="71"/>
      <point x="145" y="48" type="curve"/>
      <point x="147" y="71"/>
      <point x="162" y="158"/>
      <point x="167" y="187" type="curve" smooth="yes"/>
      <point x="227" y="525" type="line"/>
    </contour>
  </outline>
</glyph>
<glyph name="z" format="1">
  <advance width="259"/>
  <unicode hex="007A"/>
  <outline>
    <contour>
      <point x="23" y="0" type="line"/>
      <point x="23" y="29" type="line"/>
      <point x="191" y="491" type="line"/>
      <point x="39" y="491" type="line"/>
      <point x="39" y="525" type="line"/>
      <point x="229" y="525" type="line"/>
      <point x="229" y="496" type="line"/>
      <point x="62" y="34" type="line"/>
      <point x="228" y="34" type="line"/>
      <point x="228" y="0" type="line"/>
    </contour>
  </outline>
</glyph>
<glyph name="braceleft" format="1">
  <advance width="236"/>
  <unicode hex="007B"/>
  <outline>
    <contour>
      <point x="221" y="-109" type="line"/>
      <point x="126" y="-102"/>
      <point x="90" y="-59"/>
      <point x="90" y="58" type="curve" smooth="yes"/>
      <point x="90" y="198" type="line" smooth="yes"/>
      <point x="90" y="257"/>
      <point x="70" y="282"/>
      <point x="31" y="282" type="curve" smooth="yes"/>
      <point x="13" y="282" type="line"/>
      <point x="13" y="316" type="line"/>
      <point x="31" y="316" type="line" smooth="yes"/>
      <point x="70" y="316"/>
      <point x="90" y="340"/>
      <point x="90" y="399" type="curve" smooth="yes"/>
      <point x="90" y="539" type="line" smooth="yes"/>
      <point x="90" y="656"/>
      <point x="126" y="699"/>
      <point x="221" y="706" type="curve"/>
      <point x="221" y="676" type="line"/>
      <point x="149" y="665"/>
      <point x="126" y="636"/>
      <point x="126" y="546" type="curve" smooth="yes"/>
      <point x="126" y="402" type="line" smooth="yes"/>
      <point x="126" y="342"/>
      <point x="110" y="312"/>
      <point x="71" y="299" type="curve"/>
      <point x="110" y="286"/>
      <point x="126" y="255"/>
      <point x="126" y="195" type="curve" smooth="yes"/>
      <point x="126" y="52" type="line" smooth="yes"/>
      <point x="126" y="-39"/>
      <point x="149" y="-68"/>
      <point x="221" y="-78" type="curve"/>
    </contour>
  </outline>
</glyph>
<glyph name="bar" format="1">
  <advance width="165"/>
  <unicode hex="007C"/>
  <outline>
    <contour>
      <point x="101" y="-185" type="line"/>
      <point x="65" y="-185" type="line"/>
      <point x="65" y="800" type="line"/>
      <point x="101" y="800" type="line"/>
    </contour>
  </outline>
</glyph>
<glyph name="braceright" format="1">
  <advance width="236"/>
  <unicode hex="007D"/>
  <outline>
    <contour>
      <point x="223" y="282" type="line"/>
      <point x="205" y="282" type="line" smooth="yes"/>
      <point x="167" y="282"/>
      <point x="146" y="257"/>
      <point x="146" y="198" type="curve" smooth="yes"/>
      <point x="146" y="58" type="line" smooth="yes"/>
      <point x="146" y="-59"/>
      <point x="111" y="-102"/>
      <point x="15" y="-109" type="curve"/>
      <point x="15" y="-78" type="line"/>
      <point x="87" y="-68"/>
      <point x="111" y="-39"/>
      <point x="111" y="52" type="curve" smooth="yes"/>
      <point x="111" y="195" type="line" smooth="yes"/>
      <point x="111" y="255"/>
      <point x="126" y="285"/>
      <point x="165" y="298" type="curve"/>
      <point x="126" y="311"/>
      <point x="111" y="342"/>
      <point x="111" y="402" type="curve" smooth="yes"/>
      <point x="111" y="546" type="line" smooth="yes"/>
      <point x="111" y="636"/>
      <point x="87" y="665"/>
      <point x="15" y="676" type="curve"/>
      <point x="15" y="706" type="line"/>
      <point x="111" y="699"/>
      <point x="146" y="656"/>
      <point x="146" y="539" type="curve" smooth="yes"/>
      <point x="146" y="399" type="line" smooth="yes"/>
      <point x="146" y="340"/>
      <point x="167" y="316"/>
      <point x="205" y="316" type="curve" smooth="yes"/>
      <point x="223" y="316" type="line"/>
    </contour>
  </outline>
</glyph>
<glyph name="asciitilde" format="1">
  <advance width="278"/>
  <unicode hex="007E"/>
  <outline>
    <contour>
      <point x="255" y="428" type="line"/>
      <point x="245" y="360"/>
      <point x="221" y="304"/>
      <point x="187" y="304" type="curve" smooth="yes"/>
      <point x="163" y="304"/>
      <point x="151" y="324"/>
      <point x="127" y="362" type="curve" smooth="yes"/>
      <point x="112" y="386"/>
      <point x="105" y="403"/>
      <point x="92" y="403" type="curve" smooth="yes"/>
      <point x="74" y="403"/>
      <point x="62" y="370"/>
      <point x="52" y="309" type="curve"/>
      <point x="22" y="317" type="line"/>
      <point x="32" y="385"/>
      <point x="56" y="441"/>
      <point x="91" y="441" type="curve" smooth="yes"/>
      <point x="113" y="441"/>
      <point x="126" y="425"/>
      <point x="149" y="386" type="curve" smooth="yes"/>
      <point x="163" y="362"/>
      <point x="172" y="341"/>
      <point x="186" y="341" type="curve" smooth="yes"/>
      <point x="203" y="341"/>
      <point x="216" y="375"/>
      <point x="226" y="436" type="curve"/>
    </contour>
  </outline>
</glyph>
<glyph name="cent" format="1">
  <advance width="284"/>
  <unicode hex="00A2"/>
  <outline>
    <contour>
      <point x="259" y="201" type="line"/>
      <point x="242" y="135"/>
      <point x="214" y="94"/>
      <point x="173" y="86" type="curve"/>
      <point x="173" y="-14" type="line"/>
      <point x="137" y="-14" type="line"/>
      <point x="137" y="86" type="line"/>
      <point x="69" y="100"/>
      <point x="37" y="202"/>
      <point x="37" y="353" type="curve" smooth="yes"/>
      <point x="37" y="508"/>
      <point x="70" y="610"/>
      <point x="137" y="623" type="curve"/>
      <point x="137" y="723" type="line"/>
      <point x="173" y="723" type="line"/>
      <point x="173" y="625" type="line"/>
      <point x="220" y="616"/>
      <point x="244" y="565"/>
      <point x="257" y="504" type="curve"/>
      <point x="224" y="488" type="line"/>
      <point x="211" y="545"/>
      <point x="194" y="590"/>
      <point x="154" y="590" type="curve" smooth="yes"/>
      <point x="102" y="590"/>
      <point x="74" y="505"/>
      <point x="74" y="353" type="curve" smooth="yes"/>
      <point x="74" y="216"/>
      <point x="98" y="120"/>
      <point x="156" y="120" type="curve" smooth="yes"/>
      <point x="190" y="120"/>
      <point x="210" y="152"/>
      <point x="229" y="218" type="curve"/>
    </contour>
  </outline>
</glyph>
<glyph name="sterling" format="1">
  <advance width="309"/>
  <unicode hex="00A3"/>
  <outline>
    <contour>
      <point x="39" y="0" type="line"/>
      <point x="39" y="35" type="line"/>
      <point x="67" y="98"/>
      <point x="83" y="149"/>
      <point x="92" y="226" type="curve" smooth="yes"/>
      <point x="95" y="251"/>
      <point x="95" y="279"/>
      <point x="94" y="308" type="curve"/>
      <point x="40" y="308" type="line"/>
      <point x="40" y="344" type="line"/>
      <point x="91" y="344" type="line"/>
      <point x="87" y="372"/>
      <point x="81" y="397"/>
      <point x="74" y="420" type="curve" smooth="yes"/>
      <point x="59" y="469"/>
      <point x="49" y="514"/>
      <point x="49" y="563" type="curve" smooth="yes"/>
      <point x="49" y="651"/>
      <point x="90" y="709"/>
      <point x="160" y="709" type="curve" smooth="yes"/>
      <point x="228" y="709"/>
      <point x="262" y="657"/>
      <point x="282" y="555" type="curve"/>
      <point x="244" y="546" type="line"/>
      <point x="228" y="629"/>
      <point x="205" y="672"/>
      <point x="158" y="672" type="curve" smooth="yes"/>
      <point x="110" y="672"/>
      <point x="88" y="626"/>
      <point x="88" y="567" type="curve" smooth="yes"/>
      <point x="88" y="525"/>
      <point x="96" y="480"/>
      <point x="110" y="431" type="curve" smooth="yes"/>
      <point x="118" y="403"/>
      <point x="125" y="374"/>
      <point x="129" y="344" type="curve"/>
      <point x="218" y="344" type="line"/>
      <point x="218" y="308" type="line"/>
      <point x="131" y="308" type="line"/>
      <point x="132" y="279"/>
      <point x="132" y="251"/>
      <point x="129" y="225" type="curve" smooth="yes"/>
      <point x="120" y="147"/>
      <point x="104" y="94"/>
      <point x="79" y="36" type="curve"/>
      <point x="281" y="36" type="line"/>
      <point x="281" y="0" type="line"/>
    </contour>
  </outline>
</glyph>
<glyph name="yen" format="1">
  <advance width="312"/>
  <unicode hex="00A5"/>
  <outline>
    <contour>
      <point x="291" y="700" type="line"/>
      <point x="174" y="299" type="line"/>
      <point x="174" y="187" type="line"/>
      <point x="255" y="187" type="line"/>
      <point x="255" y="151" type="line"/>
      <point x="174" y="151" type="line"/>
      <point x="174" y="0" type="line"/>
      <point x="138" y="0" type="line"/>
      <point x="138" y="151" type="line"/>
      <point x="57" y="151" type="line"/>
      <point x="57" y="187" type="line"/>
      <point x="138" y="187" type="line"/>
      <point x="138" y="298" type="line"/>
      <point x="20" y="700" type="line"/>
      <point x="60" y="700" type="line"/>
      <point x="122" y="477" type="line" smooth="yes"/>
      <point x="131" y="443"/>
      <point x="152" y="366"/>
      <point x="156" y="343" type="curve"/>
      <point x="160" y="366"/>
      <point x="181" y="442"/>
      <point x="190" y="475" type="curve" smooth="yes"/>
      <point x="253" y="700" type="line"/>
    </contour>
  </outline>
</glyph>
<glyph name="section" format="1">
  <advance width="316"/>
  <unicode hex="00A7"/>
  <outline>
    <contour>
      <point x="285" y="261" type="curve" smooth="yes"/>
      <point x="285" y="188"/>
      <point x="255" y="133"/>
      <point x="206" y="93" type="curve"/>
      <point x="239" y="57"/>
      <point x="254" y="21"/>
      <point x="254" y="-32" type="curve" smooth="yes"/>
      <point x="254" y="-112"/>
      <point x="216" y="-162"/>
      <point x="157" y="-162" type="curve" smooth="yes"/>
      <point x="96" y="-162"/>
      <point x="59" y="-117"/>
      <point x="47" y="-20" type="curve"/>
      <point x="84" y="-10" type="line"/>
      <point x="93" y="-93"/>
      <point x="119" y="-125"/>
      <point x="159" y="-125" type="curve" smooth="yes"/>
      <point x="195" y="-125"/>
      <point x="216" y="-88"/>
      <point x="216" y="-36" type="curve" smooth="yes"/>
      <point x="216" y="23"/>
      <point x="197" y="55"/>
      <point x="139" y="99" type="curve" smooth="yes"/>
      <point x="68" y="152"/>
      <point x="31" y="194"/>
      <point x="31" y="286" type="curve" smooth="yes"/>
      <point x="31" y="359"/>
      <point x="61" y="414"/>
      <point x="110" y="454" type="curve"/>
      <point x="77" y="490"/>
      <point x="62" y="526"/>
      <point x="62" y="579" type="curve" smooth="yes"/>
      <point x="62" y="660"/>
      <point x="101" y="709"/>
      <point x="159" y="709" type="curve" smooth="yes"/>
      <point x="221" y="709"/>
      <point x="251" y="666"/>
      <point x="269" y="567" type="curve"/>
      <point x="232" y="557" type="line"/>
      <point x="217" y="640"/>
      <point x="197" y="672"/>
      <point x="157" y="672" type="curve" smooth="yes"/>
      <point x="121" y="672"/>
      <point x="100" y="635"/>
      <point x="100" y="583" type="curve" smooth="yes"/>
      <point x="100" y="524"/>
      <point x="119" y="492"/>
      <point x="177" y="448" type="curve" smooth="yes"/>
      <point x="248" y="395"/>
      <point x="285" y="353"/>
    </contour>
    <contour>
      <point x="247" y="258" type="curve" smooth="yes"/>
      <point x="247" y="342"/>
      <point x="202" y="384"/>
      <point x="134" y="432" type="curve"/>
      <point x="91" y="398"/>
      <point x="69" y="351"/>
      <point x="69" y="289" type="curve" smooth="yes"/>
      <point x="69" y="205"/>
      <point x="106" y="170"/>
      <point x="182" y="114" type="curve"/>
      <point x="225" y="149"/>
      <point x="247" y="196"/>
    </contour>
  </outline>
</glyph>
<glyph name="dieresis" format="1">
  <advance width="322"/>
  <unicode hex="00A8"/>
  <outline>
    <contour>
      <point x="227" y="689" type="curve" smooth="yes"/>
      <point x="245" y="689"/>
      <point x="261" y="673"/>
      <point x="261" y="655" type="curve" smooth="yes"/>
      <point x="261" y="637"/>
      <point x="245" y="622"/>
      <point x="227" y="622" type="curve" smooth="yes"/>
      <point x="209" y="622"/>
      <point x="193" y="637"/>
      <point x="193" y="655" type="curve" smooth="yes"/>
      <point x="193" y="673"/>
      <point x="209" y="689"/>
    </contour>
    <contour>
      <point x="95" y="689" type="curve" smooth="yes"/>
      <point x="113" y="689"/>
      <point x="129" y="673"/>
      <point x="129" y="655" type="curve" smooth="yes"/>
      <point x="129" y="637"/>
      <point x="113" y="622"/>
      <point x="95" y="622" type="curve" smooth="yes"/>
      <point x="77" y="622"/>
      <point x="61" y="637"/>
      <point x="61" y="655" type="curve" smooth="yes"/>
      <point x="61" y="673"/>
      <point x="77" y="689"/>
    </contour>
  </outline>
</glyph>
<glyph name="copyright" format="1">
  <advance width="463"/>
  <unicode hex="00A9"/>
  <outline>
    <contour>
      <point x="426" y="351" type="curve" smooth="yes"/>
      <point x="426" y="143"/>
      <point x="359" y="-10"/>
      <point x="231" y="-10" type="curve" smooth="yes"/>
      <point x="103" y="-10"/>
      <point x="37" y="143"/>
      <point x="37" y="351" type="curve" smooth="yes"/>
      <point x="37" y="559"/>
      <point x="103" y="711"/>
      <point x="231" y="711" type="curve" smooth="yes"/>
      <point x="359" y="711"/>
      <point x="426" y="559"/>
    </contour>
    <contour>
      <point x="398" y="351" type="curve" smooth="yes"/>
      <point x="398" y="542"/>
      <point x="345" y="685"/>
      <point x="231" y="685" type="curve" smooth="yes"/>
      <point x="117" y="685"/>
      <point x="65" y="542"/>
      <point x="65" y="351" type="curve" smooth="yes"/>
      <point x="65" y="160"/>
      <point x="117" y="17"/>
      <point x="231" y="17" type="curve" smooth="yes"/>
      <point x="345" y="17"/>
      <point x="398" y="160"/>
    </contour>
    <contour>
      <point x="299" y="248" type="line"/>
      <point x="288" y="180"/>
      <point x="268" y="149"/>
      <point x="229" y="149" type="curve" smooth="yes"/>
      <point x="179" y="149"/>
      <point x="155" y="208"/>
      <point x="155" y="351" type="curve" smooth="yes"/>
      <point x="155" y="493"/>
      <point x="180" y="553"/>
      <point x="229" y="553" type="curve" smooth="yes"/>
      <point x="267" y="553"/>
      <point x="287" y="521"/>
      <point x="298" y="453" type="curve"/>
      <point x="271" y="446" type="line"/>
      <point x="260" y="508"/>
      <point x="249" y="524"/>
      <point x="229" y="524" type="curve" smooth="yes"/>
      <point x="198" y="524"/>
      <point x="184" y="477"/>
      <point x="184" y="351" type="curve" smooth="yes"/>
      <point x="184" y="223"/>
      <point x="199" y="179"/>
      <point x="230" y="179" type="curve" smooth="yes"/>
      <point x="251" y="179"/>
      <point x="263" y="196"/>
      <point x="273" y="255" type="curve"/>
    </contour>
  </outline>
</glyph>
<glyph name="ordfeminine" format="1">
  <advance width="270"/>
  <unicode hex="00AA"/>
  <outline>
    <contour>
      <point x="122" y="273" type="curve" smooth="yes"/>
      <point x="71" y="273"/>
      <point x="42" y="316"/>
      <point x="42" y="411" type="curve" smooth="yes"/>
      <point x="42" y="508"/>
      <point x="74" y="548"/>
      <point x="129" y="548" type="curve" smooth="yes"/>
      <point x="153" y="548"/>
      <point x="171" y="540"/>
      <point x="188" y="527" type="curve"/>
      <point x="188" y="613" type="line" smooth="yes"/>
      <point x="188" y="657"/>
      <point x="175" y="679"/>
      <point x="141" y="679" type="curve" smooth="yes"/>
      <point x="119" y="679"/>
      <point x="99" y="667"/>
      <point x="74" y="642" type="curve"/>
      <point x="54" y="668" type="line"/>
      <point x="83" y="695"/>
      <point x="111" y="711"/>
      <point x="143" y="711" type="curve" smooth="yes"/>
      <point x="196" y="711"/>
      <point x="221" y="687"/>
      <point x="221" y="615" type="curve" smooth="yes"/>
      <point x="221" y="279" type="line"/>
      <point x="188" y="279" type="line"/>
      <point x="188" y="307" type="line"/>
      <point x="168" y="284"/>
      <point x="146" y="273"/>
    </contour>
    <contour>
      <point x="128" y="304" type="curve" smooth="yes"/>
      <point x="147" y="304"/>
      <point x="169" y="316"/>
      <point x="188" y="338" type="curve"/>
      <point x="188" y="495" type="line"/>
      <point x="170" y="509"/>
      <point x="156" y="517"/>
      <point x="130" y="517" type="curve" smooth="yes"/>
      <point x="92" y="517"/>
      <point x="76" y="483"/>
      <point x="76" y="412" type="curve" smooth="yes"/>
      <point x="76" y="343"/>
      <point x="92" y="304"/>
    </contour>
  </outline>
</glyph>
<glyph name="guillemotleft" format="1">
  <advance width="342"/>
  <unicode hex="00AB"/>
  <outline>
    <contour>
      <point x="315" y="-2" type="line"/>
      <point x="275" y="-2" type="line"/>
      <point x="147" y="261" type="line"/>
      <point x="275" y="523" type="line"/>
      <point x="315" y="523" type="line"/>
      <point x="186" y="261" type="line"/>
    </contour>
    <contour>
      <point x="185" y="-2" type="line"/>
      <point x="146" y="-2" type="line"/>
      <point x="18" y="261" type="line"/>
      <point x="146" y="523" type="line"/>
      <point x="185" y="523" type="line"/>
      <point x="57" y="261" type="line"/>
    </contour>
  </outline>
</glyph>
<glyph name="degree" format="1">
  <advance width="289"/>
  <unicode hex="00B0"/>
  <outline>
    <contour>
      <point x="259" y="590" type="curve" smooth="yes"/>
      <point x="259" y="523"/>
      <point x="212" y="471"/>
      <point x="144" y="471" type="curve" smooth="yes"/>
      <point x="78" y="471"/>
      <point x="30" y="523"/>
      <point x="30" y="590" type="curve" smooth="yes"/>
      <point x="30" y="656"/>
      <point x="78" y="708"/>
      <point x="144" y="708" type="curve" smooth="yes"/>
      <point x="212" y="708"/>
      <point x="259" y="656"/>
    </contour>
    <contour>
      <point x="226" y="590" type="curve" smooth="yes"/>
      <point x="226" y="639"/>
      <point x="193" y="677"/>
      <point x="144" y="677" type="curve" smooth="yes"/>
      <point x="96" y="677"/>
      <point x="63" y="639"/>
      <point x="63" y="590" type="curve" smooth="yes"/>
      <point x="63" y="540"/>
      <point x="96" y="502"/>
      <point x="144" y="502" type="curve" smooth="yes"/>
      <point x="193" y="502"/>
      <point x="226" y="540"/>
    </contour>
  </outline>
</glyph>
<glyph name="acute" format="1">
  <advance width="322"/>
  <unicode hex="00B4"/>
  <outline>
    <contour>
      <point x="250" y="758" type="line"/>
      <point x="149" y="598" type="line"/>
      <point x="121" y="598" type="line"/>
      <point x="199" y="758" type="line"/>
    </contour>
  </outline>
</glyph>
<glyph name="paragraph" format="1">
  <advance width="422"/>
  <unicode hex="00B6"/>
  <outline>
    <contour>
      <point x="367" y="-185" type="line"/>
      <point x="331" y="-185" type="line"/>
      <point x="331" y="666" type="line"/>
      <point x="257" y="666" type="line"/>
      <point x="257" y="-185" type="line"/>
      <point x="221" y="-185" type="line"/>
      <point x="221" y="316" type="line"/>
      <point x="199" y="316" type="line" smooth="yes"/>
      <point x="97" y="316"/>
      <point x="24" y="389"/>
      <point x="24" y="510" type="curve" smooth="yes"/>
      <point x="24" y="633"/>
      <point x="102" y="700"/>
      <point x="200" y="700" type="curve" smooth="yes"/>
      <point x="367" y="700" type="line"/>
    </contour>
    <contour>
      <point x="221" y="350" type="line"/>
      <point x="221" y="666" type="line"/>
      <point x="197" y="666" type="line" smooth="yes"/>
      <point x="108" y="666"/>
      <point x="60" y="600"/>
      <point x="60" y="510" type="curve" smooth="yes"/>
      <point x="60" y="419"/>
      <point x="106" y="350"/>
      <point x="198" y="350" type="curve" smooth="yes"/>
    </contour>
  </outline>
</glyph>
<glyph name="periodcentered" format="1">
  <advance width="111"/>
  <unicode hex="00B7"/>
  <outline>
    <contour>
      <point x="56" y="401" type="curve" smooth="yes"/>
      <point x="74" y="401"/>
      <point x="90" y="385"/>
      <point x="90" y="367" type="curve" smooth="yes"/>
      <point x="90" y="349"/>
      <point x="74" y="334"/>
      <point x="56" y="334" type="curve" smooth="yes"/>
      <point x="38" y="334"/>
      <point x="22" y="349"/>
      <point x="22" y="367" type="curve" smooth="yes"/>
      <point x="22" y="385"/>
      <point x="38" y="401"/>
    </contour>
  </outline>
</glyph>
<glyph name="cedilla" format="1">
  <advance width="322"/>
  <unicode hex="00B8"/>
  <outline>
    <contour>
      <point x="238" y="-114" type="curve" smooth="yes"/>
      <point x="238" y="-168"/>
      <point x="203" y="-193"/>
      <point x="163" y="-193" type="curve" smooth="yes"/>
      <point x="141" y="-193"/>
      <point x="115" y="-185"/>
      <point x="92" y="-165" type="curve"/>
      <point x="107" y="-143" type="line"/>
      <point x="124" y="-159"/>
      <point x="144" y="-166"/>
      <point x="162" y="-166" type="curve" smooth="yes"/>
      <point x="190" y="-166"/>
      <point x="207" y="-151"/>
      <point x="207" y="-115" type="curve" smooth="yes"/>
      <point x="207" y="-87"/>
      <point x="193" y="-75"/>
      <point x="176" y="-75" type="curve" smooth="yes"/>
      <point x="162" y="-75"/>
      <point x="151" y="-80"/>
      <point x="143" y="-87" type="curve"/>
      <point x="121" y="-78" type="line"/>
      <point x="148" y="-1" type="line"/>
      <point x="173" y="-1" type="line"/>
      <point x="151" y="-62" type="line"/>
      <point x="159" y="-55"/>
      <point x="172" y="-51"/>
      <point x="186" y="-51" type="curve" smooth="yes"/>
      <point x="215" y="-51"/>
      <point x="238" y="-72"/>
    </contour>
  </outline>
</glyph>
<glyph name="ordmasculine" format="1">
  <advance width="294"/>
  <unicode hex="00BA"/>
  <outline>
    <contour>
      <point x="249" y="492" type="curve" smooth="yes"/>
      <point x="249" y="355"/>
      <point x="216" y="272"/>
      <point x="147" y="272" type="curve" smooth="yes"/>
      <point x="78" y="272"/>
      <point x="45" y="354"/>
      <point x="45" y="491" type="curve" smooth="yes"/>
      <point x="45" y="628"/>
      <point x="78" y="711"/>
      <point x="147" y="711" type="curve" smooth="yes"/>
      <point x="216" y="711"/>
      <point x="249" y="629"/>
    </contour>
    <contour>
      <point x="213" y="492" type="curve" smooth="yes"/>
      <point x="213" y="610"/>
      <point x="194" y="677"/>
      <point x="146" y="677" type="curve" smooth="yes"/>
      <point x="99" y="677"/>
      <point x="81" y="609"/>
      <point x="81" y="491" type="curve" smooth="yes"/>
      <point x="81" y="373"/>
      <point x="100" y="305"/>
      <point x="147" y="305" type="curve" smooth="yes"/>
      <point x="195" y="305"/>
      <point x="213" y="374"/>
    </contour>
  </outline>
</glyph>
<glyph name="guillemotright" format="1">
  <advance width="342"/>
  <unicode hex="00BB"/>
  <outline>
    <contour>
      <point x="325" y="261" type="line"/>
      <point x="197" y="-1" type="line"/>
      <point x="158" y="-1" type="line"/>
      <point x="286" y="261" type="line"/>
      <point x="158" y="524" type="line"/>
      <point x="197" y="524" type="line"/>
    </contour>
    <contour>
      <point x="196" y="261" type="line"/>
      <point x="68" y="-1" type="line"/>
      <point x="28" y="-1" type="line"/>
      <point x="157" y="261" type="line"/>
      <point x="28" y="524" type="line"/>
      <point x="68" y="524" type="line"/>
    </contour>
  </outline>
</glyph>
<glyph name="Aring" format="1">
  <advance width="346"/>
  <unicode hex="00C5"/>
  <outline>
    <contour>
      <point x="313" y="0" type="line"/>
      <point x="272" y="0" type="line"/>
      <point x="240" y="197" type="line"/>
      <point x="105" y="197" type="line"/>
      <point x="73" y="0" type="line"/>
      <point x="33" y="0" type="line"/>
      <point x="148" y="676" type="line"/>
      <point x="114" y="685"/>
      <point x="89" y="717"/>
      <point x="89" y="755" type="curve" smooth="yes"/>
      <point x="89" y="802"/>
      <point x="125" y="839"/>
      <point x="173" y="839" type="curve" smooth="yes"/>
      <point x="221" y="839"/>
      <point x="258" y="802"/>
      <point x="258" y="755" type="curve" smooth="yes"/>
      <point x="258" y="717"/>
      <point x="232" y="685"/>
      <point x="198" y="676" type="curve"/>
    </contour>
    <contour>
      <point x="231" y="755" type="curve" smooth="yes"/>
      <point x="231" y="788"/>
      <point x="207" y="813"/>
      <point x="173" y="813" type="curve" smooth="yes"/>
      <point x="140" y="813"/>
      <point x="115" y="788"/>
      <point x="115" y="755" type="curve" smooth="yes"/>
      <point x="115" y="722"/>
      <point x="140" y="696"/>
      <point x="173" y="696" type="curve" smooth="yes"/>
      <point x="207" y="696"/>
      <point x="231" y="722"/>
    </contour>
    <contour>
      <point x="235" y="233" type="line"/>
      <point x="235" y="233"/>
      <point x="176" y="599"/>
      <point x="173" y="638" type="curve"/>
      <point x="169" y="599"/>
      <point x="111" y="233"/>
      <point x="111" y="233" type="curve"/>
    </contour>
  </outline>
</glyph>
<glyph name="AE" format="1">
  <advance width="458"/>
  <unicode hex="00C6"/>
  <outline>
    <contour>
      <point x="14" y="0" type="line"/>
      <point x="226" y="700" type="line"/>
      <point x="437" y="700" type="line"/>
      <point x="437" y="663" type="line"/>
      <point x="278" y="663" type="line"/>
      <point x="278" y="392" type="line"/>
      <point x="389" y="392" type="line"/>
      <point x="389" y="356" type="line"/>
      <point x="278" y="356" type="line"/>
      <point x="278" y="37" type="line"/>
      <point x="447" y="37" type="line"/>
      <point x="447" y="0" type="line"/>
      <point x="241" y="0" type="line"/>
      <point x="241" y="198" type="line"/>
      <point x="110" y="198" type="line"/>
      <point x="52" y="0" type="line"/>
    </contour>
    <contour>
      <point x="120" y="233" type="line"/>
      <point x="241" y="233" type="line"/>
      <point x="241" y="520" type="line" smooth="yes"/>
      <point x="241" y="545"/>
      <point x="242" y="629"/>
      <point x="242" y="645" type="curve"/>
      <point x="238" y="625"/>
      <point x="214" y="540"/>
      <point x="207" y="517" type="curve" smooth="yes"/>
    </contour>
  </outline>
</glyph>
<glyph name="Ccedilla" format="1">
  <advance width="320"/>
  <unicode hex="00C7"/>
  <outline>
    <contour>
      <point x="154" y="-8" type="line"/>
      <point x="79" y="3"/>
      <point x="42" y="109"/>
      <point x="42" y="350" type="curve" smooth="yes"/>
      <point x="42" y="600"/>
      <point x="84" y="709"/>
      <point x="169" y="709" type="curve" smooth="yes"/>
      <point x="234" y="709"/>
      <point x="267" y="655"/>
      <point x="286" y="538" type="curve"/>
      <point x="249" y="528" type="line"/>
      <point x="229" y="640"/>
      <point x="206" y="672"/>
      <point x="169" y="672" type="curve" smooth="yes"/>
      <point x="114" y="672"/>
      <point x="82" y="582"/>
      <point x="82" y="350" type="curve" smooth="yes"/>
      <point x="82" y="114"/>
      <point x="114" y="28"/>
      <point x="171" y="28" type="curve" smooth="yes"/>
      <point x="211" y="28"/>
      <point x="233" y="65"/>
      <point x="251" y="169" type="curve"/>
      <point x="287" y="159" type="line"/>
      <point x="270" y="50"/>
      <point x="238" y="-5"/>
      <point x="176" y="-9" type="curve"/>
      <point x="157" y="-62" type="line"/>
      <point x="165" y="-55"/>
      <point x="178" y="-51"/>
      <point x="192" y="-51" type="curve" smooth="yes"/>
      <point x="221" y="-51"/>
      <point x="244" y="-73"/>
      <point x="244" y="-114" type="curve" smooth="yes"/>
      <point x="244" y="-168"/>
      <point x="208" y="-193"/>
      <point x="169" y="-193" type="curve" smooth="yes"/>
      <point x="147" y="-193"/>
      <point x="123" y="-185"/>
      <point x="100" y="-165" type="curve"/>
      <point x="113" y="-146" type="line"/>
      <point x="130" y="-162"/>
      <point x="150" y="-169"/>
      <point x="168" y="-169" type="curve" smooth="yes"/>
      <point x="196" y="-169"/>
      <point x="213" y="-151"/>
      <point x="213" y="-115" type="curve" smooth="yes"/>
      <point x="213" y="-87"/>
      <point x="199" y="-76"/>
      <point x="182" y="-75" type="curve" smooth="yes"/>
      <point x="170" y="-74"/>
      <point x="157" y="-80"/>
      <point x="149" y="-87" type="curve"/>
      <point x="130" y="-78" type="line"/>
    </contour>
  </outline>
</glyph>
<glyph name="Eth" format="1">
  <advance width="351"/>
  <unicode hex="00D0"/>
  <outline>
    <contour>
      <point x="65" y="0" type="line"/>
      <point x="65" y="348" type="line"/>
      <point x="21" y="348" type="line"/>
      <point x="21" y="384" type="line"/>
      <point x="65" y="384" type="line"/>
      <point x="65" y="700" type="line"/>
      <point x="151" y="700" type="line" smooth="yes"/>
      <point x="271" y="700"/>
      <point x="311" y="591"/>
      <point x="311" y="353" type="curve" smooth="yes"/>
      <point x="311" y="102"/>
      <point x="261" y="0"/>
      <point x="146" y="0" type="curve" smooth="yes"/>
    </contour>
    <contour>
      <point x="102" y="36" type="line"/>
      <point x="149" y="36" type="line" smooth="yes"/>
      <point x="231" y="36"/>
      <point x="272" y="118"/>
      <point x="272" y="351" type="curve" smooth="yes"/>
      <point x="272" y="577"/>
      <point x="235" y="664"/>
      <point x="150" y="664" type="curve" smooth="yes"/>
      <point x="102" y="664" type="line"/>
      <point x="102" y="384" type="line"/>
      <point x="180" y="384" type="line"/>
      <point x="180" y="348" type="line"/>
      <point x="102" y="348" type="line"/>
    </contour>
  </outline>
</glyph>
<glyph name="Oslash" format="1">
  <advance width="348"/>
  <unicode hex="00D8"/>
  <outline>
    <contour>
      <point x="74" y="76" type="line"/>
      <point x="52" y="134"/>
      <point x="42" y="224"/>
      <point x="42" y="350" type="curve" smooth="yes"/>
      <point x="42" y="602"/>
      <point x="84" y="709"/>
      <point x="174" y="709" type="curve" smooth="yes"/>
      <point x="207" y="709"/>
      <point x="234" y="694"/>
      <point x="254" y="663" type="curve"/>
      <point x="281" y="750" type="line"/>
      <point x="314" y="750" type="line"/>
      <point x="275" y="622" type="line"/>
      <point x="296" y="564"/>
      <point x="306" y="475"/>
      <point x="306" y="350" type="curve" smooth="yes"/>
      <point x="306" y="98"/>
      <point x="264" y="-9"/>
      <point x="174" y="-9" type="curve" smooth="yes"/>
      <point x="141" y="-9"/>
      <point x="115" y="5"/>
      <point x="94" y="35" type="curve"/>
      <point x="94" y="36"/>
      <point x="68" y="-50"/>
      <point x="68" y="-50" type="curve"/>
      <point x="35" y="-50" type="line"/>
    </contour>
    <contour>
      <point x="96" y="147" type="curve"/>
      <point x="238" y="610" type="line"/>
      <point x="222" y="653"/>
      <point x="200" y="672"/>
      <point x="173" y="672" type="curve" smooth="yes"/>
      <point x="115" y="672"/>
      <point x="82" y="584"/>
      <point x="82" y="350" type="curve" smooth="yes"/>
      <point x="82" y="264"/>
      <point x="87" y="197"/>
    </contour>
    <contour>
      <point x="253" y="551" type="curve"/>
      <point x="111" y="89" type="line"/>
      <point x="126" y="47"/>
      <point x="148" y="28"/>
      <point x="175" y="28" type="curve" smooth="yes"/>
      <point x="233" y="28"/>
      <point x="266" y="116"/>
      <point x="266" y="350" type="curve" smooth="yes"/>
      <point x="266" y="435"/>
      <point x="261" y="501"/>
    </contour>
  </outline>
</glyph>
<glyph name="Thorn" format="1">
  <advance width="313"/>
  <unicode hex="00DE"/>
  <outline>
    <contour>
      <point x="285" y="362" type="curve" smooth="yes"/>
      <point x="285" y="224"/>
      <point x="215" y="174"/>
      <point x="126" y="174" type="curve" smooth="yes"/>
      <point x="93" y="174" type="line"/>
      <point x="93" y="0" type="line"/>
      <point x="55" y="0" type="line"/>
      <point x="55" y="700" type="line"/>
      <point x="93" y="700" type="line"/>
      <point x="93" y="543" type="line"/>
      <point x="129" y="543" type="line" smooth="yes"/>
      <point x="221" y="543"/>
      <point x="285" y="495"/>
    </contour>
    <contour>
      <point x="247" y="360" type="curve" smooth="yes"/>
      <point x="247" y="465"/>
      <point x="202" y="506"/>
      <point x="128" y="506" type="curve" smooth="yes"/>
      <point x="93" y="506" type="line"/>
      <point x="93" y="211" type="line"/>
      <point x="128" y="211" type="line" smooth="yes"/>
      <point x="202" y="211"/>
      <point x="247" y="254"/>
    </contour>
  </outline>
</glyph>
<glyph name="germandbls" format="1">
  <advance width="335"/>
  <unicode hex="00DF"/>
  <outline>
    <contour>
      <point x="297" y="219" type="curve" smooth="yes"/>
      <point x="297" y="65"/>
      <point x="258" y="0"/>
      <point x="156" y="0" type="curve" smooth="yes"/>
      <point x="146" y="0" type="line"/>
      <point x="146" y="35" type="line"/>
      <point x="157" y="35" type="line" smooth="yes"/>
      <point x="236" y="35"/>
      <point x="260" y="94"/>
      <point x="260" y="219" type="curve" smooth="yes"/>
      <point x="260" y="334"/>
      <point x="222" y="382"/>
      <point x="158" y="382" type="curve" smooth="yes"/>
      <point x="146" y="382" type="line"/>
      <point x="146" y="418" type="line"/>
      <point x="156" y="418" type="line" smooth="yes"/>
      <point x="210" y="418"/>
      <point x="231" y="457"/>
      <point x="231" y="557" type="curve" smooth="yes"/>
      <point x="231" y="643"/>
      <point x="206" y="690"/>
      <point x="157" y="690" type="curve" smooth="yes"/>
      <point x="109" y="690"/>
      <point x="87" y="647"/>
      <point x="87" y="554" type="curve" smooth="yes"/>
      <point x="87" y="-167" type="line"/>
      <point x="50" y="-190" type="line"/>
      <point x="50" y="552" type="line" smooth="yes"/>
      <point x="50" y="671"/>
      <point x="87" y="726"/>
      <point x="158" y="726" type="curve" smooth="yes"/>
      <point x="230" y="726"/>
      <point x="268" y="666"/>
      <point x="268" y="558" type="curve" smooth="yes"/>
      <point x="268" y="461"/>
      <point x="242" y="418"/>
      <point x="202" y="403" type="curve"/>
      <point x="259" y="389"/>
      <point x="297" y="336"/>
    </contour>
  </outline>
</glyph>
<glyph name="ae" format="1">
  <advance width="481"/>
  <unicode hex="00E6"/>
  <outline>
    <contour>
      <point x="444" y="253" type="curve"/>
      <point x="250" y="253" type="line"/>
      <point x="250" y="252"/>
      <point x="250" y="250"/>
      <point x="250" y="249" type="curve" smooth="yes"/>
      <point x="252" y="117"/>
      <point x="275" y="27"/>
      <point x="332" y="27" type="curve" smooth="yes"/>
      <point x="369" y="27"/>
      <point x="393" y="55"/>
      <point x="411" y="112" type="curve"/>
      <point x="442" y="95" type="line"/>
      <point x="419" y="29"/>
      <point x="384" y="-9"/>
      <point x="331" y="-9" type="curve" smooth="yes"/>
      <point x="293" y="-9"/>
      <point x="263" y="13"/>
      <point x="244" y="56" type="curve"/>
      <point x="215" y="19"/>
      <point x="182" y="-9"/>
      <point x="135" y="-9" type="curve" smooth="yes"/>
      <point x="65" y="-9"/>
      <point x="31" y="44"/>
      <point x="31" y="160" type="curve" smooth="yes"/>
      <point x="31" y="280"/>
      <point x="72" y="329"/>
      <point x="139" y="329" type="curve" smooth="yes"/>
      <point x="169" y="329"/>
      <point x="193" y="318"/>
      <point x="214" y="300" type="curve"/>
      <point x="214" y="413" type="line" smooth="yes"/>
      <point x="214" y="471"/>
      <point x="197" y="498"/>
      <point x="154" y="498" type="curve" smooth="yes"/>
      <point x="125" y="498"/>
      <point x="100" y="483"/>
      <point x="71" y="453" type="curve"/>
      <point x="49" y="481" type="line"/>
      <point x="82" y="515"/>
      <point x="117" y="534"/>
      <point x="156" y="534" type="curve" smooth="yes"/>
      <point x="212" y="534"/>
      <point x="240" y="499"/>
      <point x="243" y="449" type="curve" smooth="yes"/>
      <point x="243" y="445"/>
      <point x="243" y="433"/>
      <point x="243" y="433" type="curve"/>
      <point x="255" y="492"/>
      <point x="285" y="534"/>
      <point x="332" y="534" type="curve" smooth="yes"/>
      <point x="409" y="534"/>
      <point x="444" y="427"/>
      <point x="444" y="266" type="curve" smooth="yes"/>
      <point x="444" y="262"/>
      <point x="444" y="256"/>
    </contour>
    <contour>
      <point x="408" y="289" type="line"/>
      <point x="408" y="291"/>
      <point x="408" y="294"/>
      <point x="408" y="296" type="curve" smooth="yes"/>
      <point x="405" y="407"/>
      <point x="383" y="498"/>
      <point x="331" y="498" type="curve" smooth="yes"/>
      <point x="281" y="498"/>
      <point x="254" y="420"/>
      <point x="251" y="289" type="curve"/>
    </contour>
    <contour>
      <point x="232" y="89" type="curve"/>
      <point x="219" y="128"/>
      <point x="214" y="188"/>
      <point x="214" y="254" type="curve" smooth="yes"/>
      <point x="214" y="258"/>
      <point x="214" y="262"/>
      <point x="214" y="266" type="curve"/>
      <point x="191" y="284"/>
      <point x="169" y="293"/>
      <point x="140" y="293" type="curve" smooth="yes"/>
      <point x="92" y="293"/>
      <point x="69" y="252"/>
      <point x="69" y="161" type="curve" smooth="yes"/>
      <point x="69" y="66"/>
      <point x="93" y="26"/>
      <point x="142" y="26" type="curve" smooth="yes"/>
      <point x="179" y="26"/>
      <point x="206" y="53"/>
    </contour>
  </outline>
</glyph>
<glyph name="ccedilla" format="1">
  <advance width="284"/>
  <unicode hex="00E7"/>
  <outline>
    <contour>
      <point x="135" y="-7" type="line"/>
      <point x="69" y="10"/>
      <point x="37" y="111"/>
      <point x="37" y="260" type="curve" smooth="yes"/>
      <point x="37" y="430"/>
      <point x="77" y="534"/>
      <point x="156" y="534" type="curve" smooth="yes"/>
      <point x="214" y="534"/>
      <point x="242" y="478"/>
      <point x="257" y="411" type="curve"/>
      <point x="224" y="395" type="line"/>
      <point x="211" y="453"/>
      <point x="194" y="498"/>
      <point x="154" y="498" type="curve" smooth="yes"/>
      <point x="102" y="498"/>
      <point x="74" y="413"/>
      <point x="74" y="261" type="curve" smooth="yes"/>
      <point x="74" y="123"/>
      <point x="98" y="27"/>
      <point x="156" y="27" type="curve" smooth="yes"/>
      <point x="190" y="27"/>
      <point x="210" y="59"/>
      <point x="229" y="126" type="curve"/>
      <point x="259" y="109" type="line"/>
      <point x="240" y="36"/>
      <point x="208" y="-7"/>
      <point x="159" y="-9" type="curve"/>
      <point x="140" y="-62" type="line"/>
      <point x="148" y="-55"/>
      <point x="161" y="-51"/>
      <point x="175" y="-51" type="curve" smooth="yes"/>
      <point x="204" y="-51"/>
      <point x="227" y="-72"/>
      <point x="227" y="-114" type="curve" smooth="yes"/>
      <point x="227" y="-168"/>
      <point x="192" y="-193"/>
      <point x="152" y="-193" type="curve" smooth="yes"/>
      <point x="130" y="-193"/>
      <point x="104" y="-185"/>
      <point x="81" y="-165" type="curve"/>
      <point x="96" y="-143" type="line"/>
      <point x="113" y="-159"/>
      <point x="133" y="-166"/>
      <point x="151" y="-166" type="curve" smooth="yes"/>
      <point x="179" y="-166"/>
      <point x="196" y="-151"/>
      <point x="196" y="-115" type="curve" smooth="yes"/>
      <point x="196" y="-87"/>
      <point x="182" y="-75"/>
      <point x="165" y="-75" type="curve" smooth="yes"/>
      <point x="151" y="-75"/>
      <point x="140" y="-80"/>
      <point x="132" y="-87" type="curve"/>
      <point x="110" y="-78" type="line"/>
    </contour>
  </outline>
</glyph>
<glyph name="eth" format="1">
  <advance width="331"/>
  <unicode hex="00F0"/>
  <outline>
    <contour>
      <point x="300" y="272" type="curve" smooth="yes"/>
      <point x="300" y="88"/>
      <point x="256" y="-9"/>
      <point x="168" y="-9" type="curve" smooth="yes"/>
      <point x="80" y="-9"/>
      <point x="37" y="100"/>
      <point x="37" y="237" type="curve" smooth="yes"/>
      <point x="37" y="381"/>
      <point x="84" y="484"/>
      <point x="164" y="484" type="curve" smooth="yes"/>
      <point x="214" y="484"/>
      <point x="244" y="446"/>
      <point x="264" y="394" type="curve"/>
      <point x="253" y="482"/>
      <point x="229" y="550"/>
      <point x="194" y="598" type="curve"/>
      <point x="142" y="540" type="line"/>
      <point x="117" y="562" type="line"/>
      <point x="172" y="622" type="line"/>
      <point x="150" y="647"/>
      <point x="124" y="664"/>
      <point x="99" y="675" type="curve"/>
      <point x="99" y="711" type="line"/>
      <point x="133" y="699"/>
      <point x="166" y="679"/>
      <point x="195" y="649" type="curve"/>
      <point x="245" y="705" type="line"/>
      <point x="269" y="683" type="line"/>
      <point x="217" y="624" type="line"/>
      <point x="267" y="556"/>
      <point x="300" y="445"/>
    </contour>
    <contour>
      <point x="262" y="237" type="curve" smooth="yes"/>
      <point x="262" y="285"/>
      <point x="258" y="326"/>
      <point x="251" y="359" type="curve"/>
      <point x="235" y="408"/>
      <point x="209" y="448"/>
      <point x="166" y="448" type="curve" smooth="yes"/>
      <point x="107" y="448"/>
      <point x="74" y="364"/>
      <point x="74" y="237" type="curve" smooth="yes"/>
      <point x="74" y="116"/>
      <point x="105" y="27"/>
      <point x="169" y="27" type="curve" smooth="yes"/>
      <point x="232" y="27"/>
      <point x="262" y="116"/>
    </contour>
  </outline>
</glyph>
<glyph name="oslash" format="1">
  <advance width="322"/>
  <unicode hex="00F8"/>
  <outline>
    <contour>
      <point x="72" y="52" type="line"/>
      <point x="48" y="98"/>
      <point x="37" y="170"/>
      <point x="37" y="262" type="curve" smooth="yes"/>
      <point x="37" y="431"/>
      <point x="76" y="534"/>
      <point x="161" y="534" type="curve" smooth="yes"/>
      <point x="188" y="534"/>
      <point x="210" y="523"/>
      <point x="228" y="504" type="curve"/>
      <point x="253" y="575" type="line"/>
      <point x="285" y="575" type="line"/>
      <point x="249" y="472" type="line"/>
      <point x="273" y="424"/>
      <point x="285" y="353"/>
      <point x="285" y="262" type="curve" smooth="yes"/>
      <point x="285" y="93"/>
      <point x="245" y="-9"/>
      <point x="161" y="-9" type="curve" smooth="yes"/>
      <point x="134" y="-9"/>
      <point x="111" y="1"/>
      <point x="93" y="21" type="curve"/>
      <point x="69" y="-50" type="line"/>
      <point x="37" y="-50" type="line"/>
    </contour>
    <contour>
      <point x="90" y="102" type="curve"/>
      <point x="214" y="463" type="line"/>
      <point x="201" y="486"/>
      <point x="183" y="499"/>
      <point x="160" y="499" type="curve" smooth="yes"/>
      <point x="100" y="499"/>
      <point x="73" y="412"/>
      <point x="73" y="262" type="curve" smooth="yes"/>
      <point x="73" y="196"/>
      <point x="78" y="142"/>
    </contour>
    <contour>
      <point x="232" y="420" type="curve"/>
      <point x="107" y="61" type="line"/>
      <point x="121" y="38"/>
      <point x="138" y="26"/>
      <point x="161" y="26" type="curve" smooth="yes"/>
      <point x="222" y="26"/>
      <point x="248" y="113"/>
      <point x="248" y="262" type="curve" smooth="yes"/>
      <point x="248" y="328"/>
      <point x="243" y="381"/>
    </contour>
  </outline>
</glyph>
<glyph name="dotlessi" format="1">
  <advance width="148"/>
  <unicode hex="0131"/>
  <outline>
    <contour>
      <point x="93" y="0" type="line"/>
      <point x="56" y="0" type="line"/>
      <point x="56" y="525" type="line"/>
      <point x="93" y="525" type="line"/>
    </contour>
  </outline>
</glyph>
<glyph name="Lslash" format="1">
  <advance width="268"/>
  <unicode hex="0141"/>
  <outline>
    <contour>
      <point x="251" y="0" type="line"/>
      <point x="65" y="0" type="line"/>
      <point x="65" y="280" type="line"/>
      <point x="34" y="250" type="line"/>
      <point x="34" y="293" type="line"/>
      <point x="65" y="322" type="line"/>
      <point x="65" y="700" type="line"/>
      <point x="102" y="700" type="line"/>
      <point x="102" y="352" type="line"/>
      <point x="173" y="418" type="line"/>
      <point x="173" y="375" type="line"/>
      <point x="102" y="310" type="line"/>
      <point x="102" y="37" type="line"/>
      <point x="251" y="37" type="line"/>
    </contour>
  </outline>
</glyph>
<glyph name="lslash" format="1">
  <advance width="189"/>
  <unicode hex="0142"/>
  <outline>
    <contour>
      <point x="156" y="365" type="line"/>
      <point x="112" y="322" type="line"/>
      <point x="112" y="0" type="line"/>
      <point x="76" y="0" type="line"/>
      <point x="76" y="291" type="line"/>
      <point x="33" y="250" type="line"/>
      <point x="33" y="294" type="line"/>
      <point x="76" y="336" type="line"/>
      <point x="76" y="707" type="line"/>
      <point x="112" y="729" type="line"/>
      <point x="112" y="367" type="line"/>
      <point x="156" y="409" type="line"/>
    </contour>
  </outline>
</glyph>
<glyph name="OE" format="1">
  <advance width="484"/>
  <unicode hex="0152"/>
  <outline>
    <contour>
      <point x="473" y="0" type="line"/>
      <point x="272" y="0" type="line"/>
      <point x="272" y="105" type="line"/>
      <point x="261" y="31"/>
      <point x="222" y="-9"/>
      <point x="174" y="-9" type="curve" smooth="yes"/>
      <point x="84" y="-9"/>
      <point x="42" y="98"/>
      <point x="42" y="350" type="curve" smooth="yes"/>
      <point x="42" y="602"/>
      <point x="84" y="709"/>
      <point x="174" y="709" type="curve" smooth="yes"/>
      <point x="224" y="709"/>
      <point x="261" y="670"/>
      <point x="272" y="595" type="curve"/>
      <point x="272" y="700" type="line"/>
      <point x="463" y="700" type="line"/>
      <point x="463" y="663" type="line"/>
      <point x="304" y="663" type="line"/>
      <point x="304" y="392" type="line"/>
      <point x="415" y="392" type="line"/>
      <point x="415" y="356" type="line"/>
      <point x="304" y="356" type="line"/>
      <point x="304" y="37" type="line"/>
      <point x="473" y="37" type="line"/>
    </contour>
    <contour>
      <point x="266" y="350" type="curve" smooth="yes"/>
      <point x="266" y="584"/>
      <point x="232" y="672"/>
      <point x="173" y="672" type="curve" smooth="yes"/>
      <point x="115" y="672"/>
      <point x="82" y="584"/>
      <point x="82" y="350" type="curve" smooth="yes"/>
      <point x="82" y="116"/>
      <point x="117" y="28"/>
      <point x="175" y="28" type="curve" smooth="yes"/>
      <point x="233" y="28"/>
      <point x="266" y="116"/>
    </contour>
  </outline>
</glyph>
<glyph name="oe" format="1">
  <advance width="514"/>
  <unicode hex="0153"/>
  <outline>
    <contour>
      <point x="477" y="251" type="curve"/>
      <point x="283" y="251" type="line"/>
      <point x="283" y="239"/>
      <point x="283" y="248"/>
      <point x="283" y="247" type="curve" smooth="yes"/>
      <point x="284" y="117"/>
      <point x="307" y="27"/>
      <point x="364" y="27" type="curve" smooth="yes"/>
      <point x="402" y="27"/>
      <point x="422" y="54"/>
      <point x="445" y="112" type="curve"/>
      <point x="471" y="93" type="line"/>
      <point x="449" y="29"/>
      <point x="417" y="-9"/>
      <point x="364" y="-9" type="curve" smooth="yes"/>
      <point x="308" y="-9"/>
      <point x="274" y="49"/>
      <point x="263" y="116" type="curve"/>
      <point x="252" y="48"/>
      <point x="219" y="-9"/>
      <point x="161" y="-9" type="curve" smooth="yes"/>
      <point x="76" y="-9"/>
      <point x="37" y="93"/>
      <point x="37" y="262" type="curve" smooth="yes"/>
      <point x="37" y="431"/>
      <point x="76" y="534"/>
      <point x="161" y="534" type="curve" smooth="yes"/>
      <point x="219" y="534"/>
      <point x="255" y="475"/>
      <point x="265" y="409" type="curve"/>
      <point x="276" y="473"/>
      <point x="309" y="534"/>
      <point x="365" y="534" type="curve" smooth="yes"/>
      <point x="441" y="534"/>
      <point x="477" y="427"/>
      <point x="477" y="263" type="curve" smooth="yes"/>
      <point x="477" y="259"/>
      <point x="477" y="254"/>
    </contour>
    <contour>
      <point x="440" y="286" type="line"/>
      <point x="440" y="288"/>
      <point x="440" y="292"/>
      <point x="440" y="294" type="curve" smooth="yes"/>
      <point x="438" y="407"/>
      <point x="415" y="498"/>
      <point x="364" y="498" type="curve" smooth="yes"/>
      <point x="313" y="498"/>
      <point x="286" y="420"/>
      <point x="283" y="286" type="curve"/>
    </contour>
    <contour>
      <point x="247" y="262" type="curve" smooth="yes"/>
      <point x="247" y="411"/>
      <point x="220" y="498"/>
      <point x="160" y="498" type="curve" smooth="yes"/>
      <point x="100" y="498"/>
      <point x="74" y="411"/>
      <point x="74" y="262" type="curve" smooth="yes"/>
      <point x="74" y="113"/>
      <point x="101" y="27"/>
      <point x="161" y="27" type="curve" smooth="yes"/>
      <point x="222" y="27"/>
      <point x="247" y="114"/>
    </contour>
  </outline>
</glyph>
<glyph name="florin" format="1">
  <advance width="214"/>
  <unicode hex="0192"/>
  <outline>
    <contour>
      <point x="70" y="-189" type="line"/>
      <point x="70" y="482" type="line"/>
      <point x="23" y="482" type="line"/>
      <point x="23" y="516" type="line"/>
      <point x="70" y="516" type="line"/>
      <point x="70" y="607" type="line" smooth="yes"/>
      <point x="70" y="677"/>
      <point x="101" y="708"/>
      <point x="152" y="708" type="curve" smooth="yes"/>
      <point x="171" y="708"/>
      <point x="186" y="706"/>
      <point x="199" y="702" type="curve"/>
      <point x="198" y="668" type="line"/>
      <point x="186" y="672"/>
      <point x="171" y="674"/>
      <point x="156" y="674" type="curve" smooth="yes"/>
      <point x="126" y="674"/>
      <point x="105" y="655"/>
      <point x="105" y="609" type="curve" smooth="yes"/>
      <point x="105" y="516" type="line"/>
      <point x="184" y="516" type="line"/>
      <point x="184" y="482" type="line"/>
      <point x="105" y="482" type="line"/>
      <point x="105" y="-168" type="line"/>
    </contour>
  </outline>
</glyph>
<glyph name="circumflex" format="1">
  <advance width="322"/>
  <unicode hex="02C6"/>
  <outline>
    <contour>
      <point x="265" y="598" type="line"/>
      <point x="232" y="598" type="line"/>
      <point x="161" y="721" type="line"/>
      <point x="89" y="598" type="line"/>
      <point x="57" y="598" type="line"/>
      <point x="145" y="758" type="line"/>
      <point x="177" y="758" type="line"/>
    </contour>
  </outline>
</glyph>
<glyph name="caron" format="1">
  <advance width="322"/>
  <unicode hex="02C7"/>
  <outline>
    <contour>
      <point x="265" y="758" type="line"/>
      <point x="177" y="598" type="line"/>
      <point x="145" y="598" type="line"/>
      <point x="57" y="758" type="line"/>
      <point x="90" y="758" type="line"/>
      <point x="162" y="635" type="line"/>
      <point x="233" y="758" type="line"/>
    </contour>
  </outline>
</glyph>
<glyph name="breve" format="1">
  <advance width="322"/>
  <unicode hex="02D8"/>
  <outline>
    <contour>
      <point x="260" y="731" type="line"/>
      <point x="258" y="640"/>
      <point x="220" y="598"/>
      <point x="154" y="598" type="curve" smooth="yes"/>
      <point x="90" y="598"/>
      <point x="51" y="640"/>
      <point x="49" y="731" type="curve"/>
      <point x="80" y="731" type="line"/>
      <point x="82" y="667"/>
      <point x="107" y="627"/>
      <point x="155" y="627" type="curve" smooth="yes"/>
      <point x="200" y="627"/>
      <point x="227" y="666"/>
      <point x="230" y="731" type="curve"/>
    </contour>
  </outline>
</glyph>
<glyph name="dotaccent" format="1">
  <advance width="322"/>
  <unicode hex="02D9"/>
  <outline>
    <contour>
      <point x="161" y="687" type="curve" smooth="yes"/>
      <point x="179" y="687"/>
      <point x="195" y="671"/>
      <point x="195" y="653" type="curve" smooth="yes"/>
      <point x="195" y="635"/>
      <point x="179" y="620"/>
      <point x="161" y="620" type="curve" smooth="yes"/>
      <point x="143" y="620"/>
      <point x="127" y="635"/>
      <point x="127" y="653" type="curve" smooth="yes"/>
      <point x="127" y="671"/>
      <point x="143" y="687"/>
    </contour>
  </outline>
</glyph>
<glyph name="ring" format="1">
  <advance width="322"/>
  <unicode hex="02DA"/>
  <outline>
    <contour>
      <point x="246" y="695" type="curve" smooth="yes"/>
      <point x="246" y="648"/>
      <point x="209" y="611"/>
      <point x="161" y="611" type="curve" smooth="yes"/>
      <point x="113" y="611"/>
      <point x="77" y="648"/>
      <point x="77" y="695" type="curve" smooth="yes"/>
      <point x="77" y="742"/>
      <point x="113" y="779"/>
      <point x="161" y="779" type="curve" smooth="yes"/>
      <point x="209" y="779"/>
      <point x="246" y="742"/>
    </contour>
    <contour>
      <point x="219" y="695" type="curve" smooth="yes"/>
      <point x="219" y="728"/>
      <point x="195" y="754"/>
      <point x="161" y="754" type="curve" smooth="yes"/>
      <point x="128" y="754"/>
      <point x="103" y="728"/>
      <point x="103" y="695" type="curve" smooth="yes"/>
      <point x="103" y="662"/>
      <point x="128" y="636"/>
      <point x="161" y="636" type="curve" smooth="yes"/>
      <point x="195" y="636"/>
      <point x="219" y="662"/>
    </contour>
  </outline>
</glyph>
<glyph name="ogonek" format="1">
  <advance width="322"/>
  <unicode hex="02DB"/>
  <outline>
    <contour>
      <point x="255" y="-153" type="line"/>
      <point x="236" y="-172"/>
      <point x="206" y="-193"/>
      <point x="169" y="-193" type="curve" smooth="yes"/>
      <point x="130" y="-193"/>
      <point x="104" y="-162"/>
      <point x="104" y="-121" type="curve" smooth="yes"/>
      <point x="104" y="-77"/>
      <point x="129" y="-32"/>
      <point x="161" y="0" type="curve"/>
      <point x="185" y="0" type="line"/>
      <point x="156" y="-37"/>
      <point x="136" y="-76"/>
      <point x="136" y="-113" type="curve" smooth="yes"/>
      <point x="136" y="-146"/>
      <point x="152" y="-164"/>
      <point x="178" y="-164" type="curve" smooth="yes"/>
      <point x="202" y="-164"/>
      <point x="222" y="-153"/>
      <point x="241" y="-135" type="curve"/>
    </contour>
  </outline>
</glyph>
<glyph name="tilde" format="1">
  <advance width="315"/>
  <unicode hex="02DC"/>
  <outline>
    <contour>
      <point x="271" y="707" type="line"/>
      <point x="271" y="639"/>
      <point x="241" y="602"/>
      <point x="209" y="602" type="curve" smooth="yes"/>
      <point x="189" y="602"/>
      <point x="173" y="615"/>
      <point x="153" y="637" type="curve" smooth="yes"/>
      <point x="132" y="660"/>
      <point x="120" y="676"/>
      <point x="106" y="676" type="curve" smooth="yes"/>
      <point x="89" y="676"/>
      <point x="76" y="656"/>
      <point x="74" y="606" type="curve"/>
      <point x="44" y="606" type="line"/>
      <point x="44" y="674"/>
      <point x="73" y="710"/>
      <point x="105" y="710" type="curve" smooth="yes"/>
      <point x="124" y="710"/>
      <point x="138" y="700"/>
      <point x="162" y="674" type="curve" smooth="yes"/>
      <point x="181" y="653"/>
      <point x="195" y="636"/>
      <point x="208" y="636" type="curve" smooth="yes"/>
      <point x="226" y="636"/>
      <point x="239" y="660"/>
      <point x="241" y="707" type="curve"/>
    </contour>
  </outline>
</glyph>
<glyph name="hungarumlaut" format="1">
  <advance width="322"/>
  <unicode hex="02DD"/>
  <outline>
    <contour>
      <point x="282" y="758" type="line"/>
      <point x="182" y="598" type="line"/>
      <point x="156" y="598" type="line"/>
      <point x="234" y="758" type="line"/>
    </contour>
    <contour>
      <point x="176" y="758" type="line"/>
      <point x="76" y="598" type="line"/>
      <point x="51" y="598" type="line"/>
      <point x="128" y="758" type="line"/>
    </contour>
  </outline>
</glyph>
<glyph name="endash" format="1">
  <advance width="265"/>
  <unicode hex="2013"/>
  <outline>
    <contour>
      <point x="237" y="346" type="line"/>
      <point x="29" y="346" type="line"/>
      <point x="29" y="383" type="line"/>
      <point x="237" y="383" type="line"/>
    </contour>
  </outline>
</glyph>
<glyph name="emdash" format="1">
  <advance width="363"/>
  <unicode hex="2014"/>
  <outline>
    <contour>
      <point x="334" y="346" type="line"/>
      <point x="29" y="346" type="line"/>
      <point x="29" y="383" type="line"/>
      <point x="334" y="383" type="line"/>
    </contour>
  </outline>
</glyph>
<glyph name="quoteleft" format="1">
  <advance width="118"/>
  <unicode hex="2018"/>
  <unicode hex="02BB"/>
  <outline>
    <contour>
      <point x="86" y="700" type="line"/>
      <point x="71" y="541" type="line"/>
      <point x="29" y="541" type="line"/>
      <point x="63" y="700" type="line"/>
    </contour>
  </outline>
</glyph>
<glyph name="quoteright" format="1">
  <advance width="118"/>
  <unicode hex="2019"/>
  <unicode hex="02BC"/>
  <outline>
    <contour>
      <point x="89" y="700" type="line"/>
      <point x="55" y="541" type="line"/>
      <point x="32" y="541" type="line"/>
      <point x="47" y="700" type="line"/>
    </contour>
  </outline>
</glyph>
<glyph name="quotesinglbase" format="1">
  <advance width="118"/>
  <unicode hex="201A"/>
  <outline>
    <contour>
      <point x="84" y="67" type="line"/>
      <point x="50" y="-92" type="line"/>
      <point x="27" y="-92" type="line"/>
      <point x="42" y="67" type="line"/>
    </contour>
  </outline>
</glyph>
<glyph name="quotedblleft" format="1">
  <advance width="223"/>
  <unicode hex="201C"/>
  <outline>
    <contour>
      <point x="192" y="700" type="line"/>
      <point x="177" y="541" type="line"/>
      <point x="135" y="541" type="line"/>
      <point x="169" y="700" type="line"/>
    </contour>
    <contour>
      <point x="86" y="700" type="line"/>
      <point x="71" y="541" type="line"/>
      <point x="29" y="541" type="line"/>
      <point x="63" y="700" type="line"/>
    </contour>
  </outline>
</glyph>
<glyph name="quotedblright" format="1">
  <advance width="223"/>
  <unicode hex="201D"/>
  <outline>
    <contour>
      <point x="195" y="700" type="line"/>
      <point x="161" y="541" type="line"/>
      <point x="138" y="541" type="line"/>
      <point x="153" y="700" type="line"/>
    </contour>
    <contour>
      <point x="89" y="700" type="line"/>
      <point x="55" y="541" type="line"/>
      <point x="32" y="541" type="line"/>
      <point x="47" y="700" type="line"/>
    </contour>
  </outline>
</glyph>
<glyph name="quotedblbase" format="1">
  <advance width="256"/>
  <unicode hex="201E"/>
  <outline>
    <contour>
      <point x="222" y="67" type="line"/>
      <point x="188" y="-92" type="line"/>
      <point x="166" y="-92" type="line"/>
      <point x="180" y="67" type="line"/>
    </contour>
    <contour>
      <point x="84" y="67" type="line"/>
      <point x="50" y="-92" type="line"/>
      <point x="27" y="-92" type="line"/>
      <point x="42" y="67" type="line"/>
    </contour>
  </outline>
</glyph>
<glyph name="dagger" format="1">
  <advance width="301"/>
  <unicode hex="2020"/>
  <outline>
    <contour>
      <point x="285" y="415" type="line"/>
      <point x="168" y="415" type="line"/>
      <point x="168" y="-100" type="line"/>
      <point x="133" y="-100" type="line"/>
      <point x="133" y="415" type="line"/>
      <point x="16" y="415" type="line"/>
      <point x="16" y="448" type="line"/>
      <point x="133" y="448" type="line"/>
      <point x="133" y="700" type="line"/>
      <point x="168" y="700" type="line"/>
      <point x="168" y="448" type="line"/>
      <point x="285" y="448" type="line"/>
    </contour>
  </outline>
</glyph>
<glyph name="daggerdbl" format="1">
  <advance width="301"/>
  <unicode hex="2021"/>
  <outline>
    <contour>
      <point x="283" y="152" type="line"/>
      <point x="168" y="152" type="line"/>
      <point x="168" y="-100" type="line"/>
      <point x="133" y="-100" type="line"/>
      <point x="133" y="152" type="line"/>
      <point x="18" y="152" type="line"/>
      <point x="18" y="185" type="line"/>
      <point x="133" y="185" type="line"/>
      <point x="133" y="415" type="line"/>
      <point x="18" y="415" type="line"/>
      <point x="18" y="448" type="line"/>
      <point x="133" y="448" type="line"/>
      <point x="133" y="700" type="line"/>
      <point x="168" y="700" type="line"/>
      <point x="168" y="448" type="line"/>
      <point x="283" y="448" type="line"/>
      <point x="283" y="415" type="line"/>
      <point x="168" y="415" type="line"/>
      <point x="168" y="185" type="line"/>
      <point x="283" y="185" type="line"/>
    </contour>
  </outline>
</glyph>
<glyph name="ellipsis" format="1">
  <advance width="344"/>
  <unicode hex="2026"/>
  <outline>
    <contour>
      <point x="288" y="61" type="curve" smooth="yes"/>
      <point x="306" y="61"/>
      <point x="322" y="45"/>
      <point x="322" y="27" type="curve" smooth="yes"/>
      <point x="322" y="9"/>
      <point x="306" y="-6"/>
      <point x="288" y="-6" type="curve" smooth="yes"/>
      <point x="270" y="-6"/>
      <point x="254" y="9"/>
      <point x="254" y="27" type="curve" smooth="yes"/>
      <point x="254" y="45"/>
      <point x="270" y="61"/>
    </contour>
    <contour>
      <point x="172" y="61" type="curve" smooth="yes"/>
      <point x="190" y="61"/>
      <point x="206" y="45"/>
      <point x="206" y="27" type="curve" smooth="yes"/>
      <point x="206" y="9"/>
      <point x="190" y="-6"/>
      <point x="172" y="-6" type="curve" smooth="yes"/>
      <point x="154" y="-6"/>
      <point x="138" y="9"/>
      <point x="138" y="27" type="curve" smooth="yes"/>
      <point x="138" y="45"/>
      <point x="154" y="61"/>
    </contour>
    <contour>
      <point x="56" y="61" type="curve" smooth="yes"/>
      <point x="74" y="61"/>
      <point x="90" y="45"/>
      <point x="90" y="27" type="curve" smooth="yes"/>
      <point x="90" y="9"/>
      <point x="74" y="-6"/>
      <point x="56" y="-6" type="curve" smooth="yes"/>
      <point x="38" y="-6"/>
      <point x="22" y="9"/>
      <point x="22" y="27" type="curve" smooth="yes"/>
      <point x="22" y="45"/>
      <point x="38" y="61"/>
    </contour>
  </outline>
</glyph>
<glyph name="perthousand" format="1">
  <advance width="757"/>
  <unicode hex="2030"/>
  <outline>
    <contour>
      <point x="213" y="507" type="curve" smooth="yes"/>
      <point x="213" y="373"/>
      <point x="177" y="303"/>
      <point x="121" y="303" type="curve" smooth="yes"/>
      <point x="65" y="303"/>
      <point x="31" y="371"/>
      <point x="31" y="505" type="curve" smooth="yes"/>
      <point x="31" y="639"/>
      <point x="67" y="709"/>
      <point x="123" y="709" type="curve" smooth="yes"/>
      <point x="179" y="709"/>
      <point x="213" y="641"/>
    </contour>
    <contour>
      <point x="436" y="700" type="line"/>
      <point x="130" y="0" type="line"/>
      <point x="94" y="0" type="line"/>
      <point x="400" y="700" type="line"/>
    </contour>
    <contour>
      <point x="731" y="195" type="curve" smooth="yes"/>
      <point x="731" y="61"/>
      <point x="695" y="-9"/>
      <point x="639" y="-9" type="curve" smooth="yes"/>
      <point x="583" y="-9"/>
      <point x="549" y="59"/>
      <point x="549" y="193" type="curve" smooth="yes"/>
      <point x="549" y="327"/>
      <point x="585" y="397"/>
      <point x="641" y="397" type="curve" smooth="yes"/>
      <point x="697" y="397"/>
      <point x="731" y="329"/>
    </contour>
    <contour>
      <point x="499" y="195" type="curve" smooth="yes"/>
      <point x="499" y="61"/>
      <point x="463" y="-9"/>
      <point x="407" y="-9" type="curve" smooth="yes"/>
      <point x="352" y="-9"/>
      <point x="318" y="59"/>
      <point x="318" y="193" type="curve" smooth="yes"/>
      <point x="318" y="327"/>
      <point x="354" y="397"/>
      <point x="409" y="397" type="curve" smooth="yes"/>
      <point x="465" y="397"/>
      <point x="499" y="329"/>
    </contour>
    <contour>
      <point x="178" y="506" type="curve" smooth="yes"/>
      <point x="178" y="617"/>
      <point x="157" y="676"/>
      <point x="122" y="676" type="curve" smooth="yes"/>
      <point x="86" y="676"/>
      <point x="66" y="617"/>
      <point x="66" y="506" type="curve" smooth="yes"/>
      <point x="66" y="395"/>
      <point x="87" y="336"/>
      <point x="122" y="336" type="curve" smooth="yes"/>
      <point x="158" y="336"/>
      <point x="178" y="395"/>
    </contour>
    <contour>
      <point x="696" y="194" type="curve" smooth="yes"/>
      <point x="696" y="305"/>
      <point x="675" y="364"/>
      <point x="640" y="364" type="curve" smooth="yes"/>
      <point x="604" y="364"/>
      <point x="584" y="305"/>
      <point x="584" y="194" type="curve" smooth="yes"/>
      <point x="584" y="83"/>
      <point x="604" y="24"/>
      <point x="640" y="24" type="curve" smooth="yes"/>
      <point x="676" y="24"/>
      <point x="696" y="83"/>
    </contour>
    <contour>
      <point x="465" y="194" type="curve" smooth="yes"/>
      <point x="465" y="305"/>
      <point x="444" y="364"/>
      <point x="408" y="364" type="curve" smooth="yes"/>
      <point x="373" y="364"/>
      <point x="352" y="305"/>
      <point x="352" y="194" type="curve" smooth="yes"/>
      <point x="352" y="83"/>
      <point x="373" y="24"/>
      <point x="409" y="24" type="curve" smooth="yes"/>
      <point x="444" y="24"/>
      <point x="465" y="83"/>
    </contour>
  </outline>
</glyph>
<glyph name="guilsinglleft" format="1">
  <advance width="212"/>
  <unicode hex="2039"/>
  <outline>
    <contour>
      <point x="184" y="0" type="line"/>
      <point x="145" y="0" type="line"/>
      <point x="16" y="263" type="line"/>
      <point x="145" y="525" type="line"/>
      <point x="184" y="525" type="line"/>
      <point x="56" y="263" type="line"/>
    </contour>
  </outline>
</glyph>
<glyph name="guilsinglright" format="1">
  <advance width="212"/>
  <unicode hex="203A"/>
  <outline>
    <contour>
      <point x="196" y="262" type="line"/>
      <point x="68" y="0" type="line"/>
      <point x="28" y="0" type="line"/>
      <point x="157" y="262" type="line"/>
      <point x="28" y="525" type="line"/>
      <point x="68" y="525" type="line"/>
    </contour>
  </outline>
</glyph>
<glyph name="fraction" format="1">
  <advance width="279"/>
  <unicode hex="2044"/>
  <outline>
    <contour>
      <point x="309" y="700" type="line"/>
      <point x="9" y="0" type="line"/>
      <point x="-31" y="0" type="line"/>
      <point x="270" y="700" type="line"/>
    </contour>
  </outline>
</glyph>
<glyph name="Euro" format="1">
  <advance width="319"/>
  <unicode hex="20AC"/>
  <outline>
    <contour>
      <point x="82" y="438" type="curve"/>
      <point x="196" y="438" type="line"/>
      <point x="196" y="402" type="line"/>
      <point x="81" y="402" type="line"/>
      <point x="80" y="386"/>
      <point x="80" y="368"/>
      <point x="80" y="350" type="curve" smooth="yes"/>
      <point x="80" y="334"/>
      <point x="80" y="319"/>
      <point x="80" y="305" type="curve"/>
      <point x="196" y="305" type="line"/>
      <point x="196" y="269" type="line"/>
      <point x="81" y="269" type="line"/>
      <point x="88" y="91"/>
      <point x="120" y="28"/>
      <point x="170" y="28" type="curve" smooth="yes"/>
      <point x="209" y="28"/>
      <point x="232" y="65"/>
      <point x="250" y="169" type="curve"/>
      <point x="286" y="159" type="line"/>
      <point x="268" y="46"/>
      <point x="235" y="-9"/>
      <point x="167" y="-9" type="curve" smooth="yes"/>
      <point x="81" y="-9"/>
      <point x="41" y="98"/>
      <point x="41" y="350" type="curve" smooth="yes"/>
      <point x="41" y="600"/>
      <point x="83" y="709"/>
      <point x="168" y="709" type="curve" smooth="yes"/>
      <point x="231" y="709"/>
      <point x="266" y="655"/>
      <point x="285" y="538" type="curve"/>
      <point x="248" y="528" type="line"/>
      <point x="228" y="640"/>
      <point x="204" y="672"/>
      <point x="168" y="672" type="curve" smooth="yes"/>
      <point x="121" y="672"/>
      <point x="89" y="610"/>
    </contour>
  </outline>
</glyph>
<glyph name="uni2117" format="1">
  <advance width="463"/>
  <unicode hex="2117"/>
  <outline>
    <contour>
      <point x="231" y="-10" type="curve" smooth="yes"/>
      <point x="103" y="-10"/>
      <point x="37" y="143"/>
      <point x="37" y="351" type="curve" smooth="yes"/>
      <point x="37" y="559"/>
      <point x="103" y="711"/>
      <point x="231" y="711" type="curve" smooth="yes"/>
      <point x="359" y="711"/>
      <point x="426" y="559"/>
      <point x="426" y="351" type="curve" smooth="yes"/>
      <point x="426" y="143"/>
      <point x="359" y="-10"/>
    </contour>
    <contour>
      <point x="231" y="17" type="curve" smooth="yes"/>
      <point x="345" y="17"/>
      <point x="398" y="160"/>
      <point x="398" y="351" type="curve" smooth="yes"/>
      <point x="398" y="542"/>
      <point x="345" y="685"/>
      <point x="231" y="685" type="curve" smooth="yes"/>
      <point x="117" y="685"/>
      <point x="65" y="542"/>
      <point x="65" y="351" type="curve" smooth="yes"/>
      <point x="65" y="160"/>
      <point x="117" y="17"/>
    </contour>
    <contour>
      <point x="177" y="152" type="line"/>
      <point x="177" y="544" type="line"/>
      <point x="221" y="544" type="line" smooth="yes"/>
      <point x="274" y="544"/>
      <point x="312" y="517"/>
      <point x="312" y="443" type="curve" smooth="yes"/>
      <point x="312" y="366"/>
      <point x="271" y="337"/>
      <point x="219" y="337" type="curve" smooth="yes"/>
      <point x="205" y="337" type="line"/>
      <point x="205" y="152" type="line"/>
    </contour>
    <contour>
      <point x="205" y="363" type="line"/>
      <point x="221" y="363" type="line" smooth="yes"/>
      <point x="261" y="363"/>
      <point x="284" y="386"/>
      <point x="284" y="443" type="curve" smooth="yes"/>
      <point x="284" y="500"/>
      <point x="260" y="518"/>
      <point x="221" y="518" type="curve" smooth="yes"/>
      <point x="205" y="518" type="line"/>
    </contour>
  </outline>
</glyph>
<glyph name="trademark" format="1">
  <advance width="409"/>
  <unicode hex="2122"/>
  <outline>
    <contour>
      <point x="156" y="676" type="line"/>
      <point x="95" y="676" type="line"/>
      <point x="95" y="308" type="line"/>
      <point x="70" y="308" type="line"/>
      <point x="70" y="676" type="line"/>
      <point x="8" y="676" type="line"/>
      <point x="8" y="700" type="line"/>
      <point x="156" y="700" type="line"/>
    </contour>
    <contour>
      <point x="380" y="308" type="line"/>
      <point x="357" y="308" type="line"/>
      <point x="357" y="555" type="line" smooth="yes"/>
      <point x="357" y="565"/>
      <point x="359" y="621"/>
      <point x="359" y="630" type="curve"/>
      <point x="358" y="622"/>
      <point x="346" y="565"/>
      <point x="344" y="554" type="curve" smooth="yes"/>
      <point x="291" y="302" type="line"/>
      <point x="288" y="302" type="line"/>
      <point x="236" y="544" type="line" smooth="yes"/>
      <point x="234" y="553"/>
      <point x="220" y="618"/>
      <point x="219" y="625" type="curve"/>
      <point x="219" y="618"/>
      <point x="221" y="553"/>
      <point x="221" y="543" type="curve" smooth="yes"/>
      <point x="221" y="308" type="line"/>
      <point x="198" y="308" type="line"/>
      <point x="198" y="700" type="line"/>
      <point x="225" y="700" type="line"/>
      <point x="274" y="472" type="line" smooth="yes"/>
      <point x="278" y="455"/>
      <point x="287" y="399"/>
      <point x="289" y="387" type="curve"/>
      <point x="291" y="399"/>
      <point x="302" y="454"/>
      <point x="305" y="470" type="curve" smooth="yes"/>
      <point x="353" y="700" type="line"/>
      <point x="380" y="700" type="line"/>
    </contour>
  </outline>
</glyph>
<glyph name="arrowleft" format="1">
  <advance width="302"/>
  <unicode hex="2190"/>
  <outline>
    <contour>
      <point x="283" y="331" type="line"/>
      <point x="81" y="331" type="line"/>
      <point x="136" y="261" type="line"/>
      <point x="131" y="256" type="line"/>
      <point x="11" y="347" type="line"/>
      <point x="131" y="439" type="line"/>
      <point x="136" y="433" type="line"/>
      <point x="81" y="363" type="line"/>
      <point x="283" y="363" type="line"/>
    </contour>
  </outline>
</glyph>
<glyph name="arrowup" format="1">
  <advance width="266"/>
  <unicode hex="2191"/>
  <outline>
    <contour>
      <point x="116" y="0" type="line"/>
      <point x="116" y="642" type="line"/>
      <point x="47" y="587" type="line"/>
      <point x="42" y="592" type="line"/>
      <point x="133" y="712" type="line"/>
      <point x="224" y="592" type="line"/>
      <point x="219" y="587" type="line"/>
      <point x="150" y="642" type="line"/>
      <point x="150" y="0" type="line"/>
    </contour>
  </outline>
</glyph>
<glyph name="arrowright" format="1">
  <advance width="302"/>
  <unicode hex="2192"/>
  <outline>
    <contour>
      <point x="291" y="347" type="line"/>
      <point x="171" y="256" type="line"/>
      <point x="166" y="261" type="line"/>
      <point x="221" y="331" type="line"/>
      <point x="19" y="331" type="line"/>
      <point x="19" y="363" type="line"/>
      <point x="221" y="363" type="line"/>
      <point x="166" y="433" type="line"/>
      <point x="171" y="439" type="line"/>
    </contour>
  </outline>
</glyph>
<glyph name="arrowdown" format="1">
  <advance width="266"/>
  <unicode hex="2193"/>
  <outline>
    <contour>
      <point x="224" y="108" type="line"/>
      <point x="133" y="-12" type="line"/>
      <point x="42" y="108" type="line"/>
      <point x="47" y="113" type="line"/>
      <point x="116" y="58" type="line"/>
      <point x="116" y="703" type="line"/>
      <point x="150" y="703" type="line"/>
      <point x="150" y="58" type="line"/>
      <point x="219" y="113" type="line"/>
    </contour>
  </outline>
</glyph>
<glyph name="arrowboth" format="1">
  <advance width="465"/>
  <unicode hex="2194"/>
  <outline>
    <contour>
      <point x="454" y="347" type="line"/>
      <point x="334" y="256" type="line"/>
      <point x="329" y="261" type="line"/>
      <point x="384" y="331" type="line"/>
      <point x="81" y="331" type="line"/>
      <point x="136" y="261" type="line"/>
      <point x="131" y="256" type="line"/>
      <point x="11" y="347" type="line"/>
      <point x="131" y="439" type="line"/>
      <point x="136" y="433" type="line"/>
      <point x="81" y="363" type="line"/>
      <point x="384" y="363" type="line"/>
      <point x="329" y="433" type="line"/>
      <point x="334" y="439" type="line"/>
    </contour>
  </outline>
</glyph>
<glyph name="arrowupdn" format="1">
  <advance width="266"/>
  <unicode hex="2195"/>
  <outline>
    <contour>
      <point x="224" y="108" type="line"/>
      <point x="133" y="-12" type="line"/>
      <point x="42" y="108" type="line"/>
      <point x="47" y="113" type="line"/>
      <point x="116" y="58" type="line"/>
      <point x="116" y="642" type="line"/>
      <point x="47" y="587" type="line"/>
      <point x="42" y="592" type="line"/>
      <point x="133" y="712" type="line"/>
      <point x="224" y="592" type="line"/>
      <point x="219" y="587" type="line"/>
      <point x="150" y="642" type="line"/>
      <point x="150" y="58" type="line"/>
      <point x="219" y="113" type="line"/>
    </contour>
  </outline>
</glyph>
<glyph name="radical" format="1">
  <advance width="321"/>
  <unicode hex="221A"/>
  <outline>
    <contour>
      <point x="310" y="700" type="line"/>
      <point x="165" y="-2" type="line"/>
      <point x="127" y="-2" type="line"/>
      <point x="14" y="340" type="line"/>
      <point x="56" y="340" type="line"/>
      <point x="107" y="173" type="line" smooth="yes"/>
      <point x="114" y="150"/>
      <point x="138" y="68"/>
      <point x="143" y="43" type="curve"/>
      <point x="146" y="68"/>
      <point x="163" y="151"/>
      <point x="168" y="174" type="curve" smooth="yes"/>
      <point x="272" y="700" type="line"/>
    </contour>
  </outline>
</glyph>
<glyph name="apple" format="1">
  <advance width="465"/>
  <unicode hex="F8FF"/>
  <outline>
    <contour>
      <point x="454" y="347" type="line"/>
      <point x="334" y="256" type="line"/>
      <point x="329" y="261" type="line"/>
      <point x="384" y="331" type="line"/>
      <point x="249" y="331" type="line"/>
      <point x="249" y="58" type="line"/>
      <point x="319" y="113" type="line"/>
      <point x="324" y="108" type="line"/>
      <point x="232" y="-12" type="line"/>
      <point x="141" y="108" type="line"/>
      <point x="146" y="113" type="line"/>
      <point x="216" y="58" type="line"/>
      <point x="216" y="331" type="line"/>
      <point x="81" y="331" type="line"/>
      <point x="136" y="261" type="line"/>
      <point x="131" y="256" type="line"/>
      <point x="11" y="347" type="line"/>
      <point x="131" y="439" type="line"/>
      <point x="136" y="433" type="line"/>
      <point x="81" y="363" type="line"/>
      <point x="216" y="363" type="line"/>
      <point x="216" y="642" type="line"/>
      <point x="146" y="587" type="line"/>
      <point x="141" y="592" type="line"/>
      <point x="232" y="712" type="line"/>
      <point x="324" y="592" type="line"/>
      <point x="319" y="587" type="line"/>
      <point x="249" y="642" type="line"/>
      <point x="249" y="363" type="line"/>
      <point x="384" y="363" type="line"/>
      <point x="329" y="433" type="line"/>
      <point x="334" y="439" type="line"/>
    </contour>
  </outline>
</glyph>
<glyph name="fi" format="1">
  <advance width="332"/>
  <unicode hex="FB01"/>
  <outline>
    <contour>
      <point x="257" y="707" type="curve" smooth="yes"/>
      <point x="275" y="707"/>
      <point x="291" y="691"/>
      <point x="291" y="673" type="curve" smooth="yes"/>
      <point x="291" y="655"/>
      <point x="275" y="640"/>
      <point x="257" y="640" type="curve" smooth="yes"/>
      <point x="239" y="640"/>
      <point x="223" y="655"/>
      <point x="223" y="673" type="curve" smooth="yes"/>
      <point x="223" y="691"/>
      <point x="239" y="707"/>
    </contour>
    <contour>
      <point x="182" y="684" type="line"/>
      <point x="170" y="689"/>
      <point x="159" y="691"/>
      <point x="144" y="691" type="curve" smooth="yes"/>
      <point x="117" y="691"/>
      <point x="97" y="672"/>
      <point x="97" y="630" type="curve" smooth="yes"/>
      <point x="97" y="525" type="line"/>
      <point x="167" y="525" type="line"/>
      <point x="167" y="491" type="line"/>
      <point x="97" y="491" type="line"/>
      <point x="97" y="0" type="line"/>
      <point x="62" y="0" type="line"/>
      <point x="62" y="491" type="line"/>
      <point x="16" y="491" type="line"/>
      <point x="16" y="525" type="line"/>
      <point x="62" y="525" type="line"/>
      <point x="62" y="627" type="line" smooth="yes"/>
      <point x="62" y="696"/>
      <point x="93" y="726"/>
      <point x="140" y="726" type="curve" smooth="yes"/>
      <point x="158" y="726"/>
      <point x="169" y="724"/>
      <point x="182" y="719" type="curve"/>
    </contour>
    <contour>
      <point x="276" y="0" type="line"/>
      <point x="239" y="0" type="line"/>
      <point x="239" y="525" type="line"/>
      <point x="276" y="525" type="line"/>
    </contour>
  </outline>
</glyph>
<glyph name="fl" format="1">
  <advance width="332"/>
  <unicode hex="FB02"/>
  <outline>
    <contour>
      <point x="276" y="0" type="line"/>
      <point x="239" y="0" type="line"/>
      <point x="239" y="707" type="line"/>
      <point x="276" y="729" type="line"/>
    </contour>
    <contour>
      <point x="182" y="684" type="line"/>
      <point x="170" y="689"/>
      <point x="159" y="691"/>
      <point x="144" y="691" type="curve" smooth="yes"/>
      <point x="117" y="691"/>
      <point x="97" y="672"/>
      <point x="97" y="630" type="curve" smooth="yes"/>
      <point x="97" y="525" type="line"/>
      <point x="167" y="525" type="line"/>
      <point x="167" y="491" type="line"/>
      <point x="97" y="491" type="line"/>
      <point x="97" y="0" type="line"/>
      <point x="62" y="0" type="line"/>
      <point x="62" y="491" type="line"/>
      <point x="16" y="491" type="line"/>
      <point x="16" y="525" type="line"/>
      <point x="62" y="525" type="line"/>
      <point x="62" y="627" type="line" smooth="yes"/>
      <point x="62" y="696"/>
      <point x="93" y="726"/>
      <point x="140" y="726" type="curve" smooth="yes"/>
      <point x="158" y="726"/>
      <point x="169" y="724"/>
      <point x="182" y="719" type="curve"/>
    </contour>
  </outline>
</glyph>
<glyph name="bullet" format="1">
  <advance width="232"/>
  <outline>
    <contour>
      <point x="170" y="366" type="curve" smooth="yes"/>
      <point x="170" y="336"/>
      <point x="146" y="312"/>
      <point x="116" y="312" type="curve" smooth="yes"/>
      <point x="86" y="312"/>
      <point x="62" y="336"/>
      <point x="62" y="366" type="curve" smooth="yes"/>
      <point x="62" y="396"/>
      <point x="86" y="421"/>
      <point x="116" y="421" type="curve" smooth="yes"/>
      <point x="146" y="421"/>
      <point x="170" y="396"/>
    </contour>
  </outline>
</glyph>
<glyph name="macron" format="1">
  <advance width="322"/>
  <outline>
    <contour>
      <point x="270" y="628" type="line"/>
      <point x="52" y="628" type="line"/>
      <point x="52" y="659" type="line"/>
      <point x="270" y="659" type="line"/>
    </contour>
  </outline>
</glyph>
<glyph name="registered" format="1">
  <advance width="463"/>
  <outline>
    <contour>
      <point x="231" y="-10" type="curve" smooth="yes"/>
      <point x="103" y="-10"/>
      <point x="37" y="143"/>
      <point x="37" y="351" type="curve" smooth="yes"/>
      <point x="37" y="559"/>
      <point x="103" y="711"/>
      <point x="231" y="711" type="curve" smooth="yes"/>
      <point x="359" y="711"/>
      <point x="426" y="559"/>
      <point x="426" y="351" type="curve" smooth="yes"/>
      <point x="426" y="143"/>
      <point x="359" y="-10"/>
    </contour>
    <contour>
      <point x="231" y="17" type="curve" smooth="yes"/>
      <point x="345" y="17"/>
      <point x="398" y="160"/>
      <point x="398" y="351" type="curve" smooth="yes"/>
      <point x="398" y="542"/>
      <point x="345" y="685"/>
      <point x="231" y="685" type="curve" smooth="yes"/>
      <point x="117" y="685"/>
      <point x="65" y="542"/>
      <point x="65" y="351" type="curve" smooth="yes"/>
      <point x="65" y="160"/>
      <point x="117" y="17"/>
    </contour>
    <contour>
      <point x="170" y="163" type="line"/>
      <point x="170" y="555" type="line"/>
      <point x="214" y="555" type="line" smooth="yes"/>
      <point x="268" y="555"/>
      <point x="306" y="529"/>
      <point x="306" y="456" type="curve" smooth="yes"/>
      <point x="306" y="406"/>
      <point x="287" y="377"/>
      <point x="259" y="362" type="curve"/>
      <point x="311" y="163" type="line"/>
      <point x="282" y="163" type="line"/>
      <point x="231" y="353" type="line"/>
      <point x="225" y="352"/>
      <point x="218" y="351"/>
      <point x="210" y="351" type="curve" smooth="yes"/>
      <point x="205" y="351"/>
      <point x="200" y="351"/>
      <point x="198" y="351" type="curve"/>
      <point x="198" y="163" type="line"/>
    </contour>
    <contour>
      <point x="198" y="376" type="line"/>
      <point x="214" y="376" type="line" smooth="yes"/>
      <point x="254" y="376"/>
      <point x="277" y="402"/>
      <point x="277" y="456" type="curve" smooth="yes"/>
      <point x="277" y="510"/>
      <point x="254" y="529"/>
      <point x="214" y="529" type="curve" smooth="yes"/>
      <point x="198" y="529" type="line"/>
    </contour>
  </outline>
</glyph>
